<?xml version="1.0" encoding="UTF-8" standalone="no"?>
<!DOCTYPE svg PUBLIC "-//W3C//DTD SVG 1.1//EN" "http://www.w3.org/Graphics/SVG/1.1/DTD/svg11.dtd">
<!-- Created with Vectornator (http://vectornator.io/) -->
<svg height="100%" stroke-miterlimit="10" style="fill-rule:nonzero;clip-rule:evenodd;stroke-linecap:round;stroke-linejoin:round;" version="1.1" viewBox="0 0 32 32" width="100%" xml:space="preserve" xmlns="http://www.w3.org/2000/svg" xmlns:vectornator="http://vectornator.io" xmlns:xlink="http://www.w3.org/1999/xlink">
<defs/>
<g id="layer1" vectornator:layerName="layer1">
<path d="M4.1955 0L27.8045 0C30.1216 0 32 1.87839 32 4.1955L32 27.8045C32 30.1216 30.1216 32 27.8045 32L4.1955 32C1.87839 32 0 30.1216 0 27.8045L0 4.1955C0 1.87839 1.87839 0 4.1955 0Z" fill="#000000" fill-rule="nonzero" opacity="1" stroke="none"/>
<path d="M30.5002 5.04689C30.5002 5.54885 30.0938 5.95553 29.5917 5.95553C29.0896 5.95553 28.6831 5.54885 28.6831 5.04689C28.6831 4.54493 29.0896 4.13825 29.5917 4.13825C30.0938 4.13825 30.5002 4.54493 30.5002 5.04689Z" fill="#ef9f46" fill-opacity="0.401226" fill-rule="nonzero" opacity="1" stroke="none"/>
<path d="M30.8715 28.8327C30.8715 29.7458 30.1317 30.4856 29.2185 30.4856C28.3054 30.4856 27.5656 29.7458 27.5656 28.8327C27.5656 27.92 28.3054 27.1802 29.2185 27.1802C30.1317 27.1802 30.8715 27.92 30.8715 28.8327Z" fill="#ef9f46" fill-opacity="0.401226" fill-rule="nonzero" opacity="1" stroke="none"/>
<path d="M3.97497 8.94187C3.97497 10.0193 3.10779 10.892 2.03723 10.892C0.96718 10.892 0.1 10.0193 0.1 8.94187C0.1 7.86448 0.96718 6.99152 2.03723 6.99152C3.10779 6.99152 3.97497 7.86448 3.97497 8.94187ZM8.96189 27.1295C8.96189 27.631 8.55769 28.0379 8.05945 28.0379C7.56071 28.0379 7.1565 27.631 7.1565 27.1295C7.1565 26.6274 7.56071 26.2205 8.05945 26.2205C8.55769 26.2205 8.96189 26.6274 8.96189 27.1295ZM22.8112 28.1671C22.8112 28.6686 22.407 29.0755 21.9083 29.0755C21.41 29.0755 21.0058 28.6686 21.0058 28.1671C21.0058 27.665 21.41 27.2586 21.9083 27.2586C22.407 27.2586 22.8112 27.665 22.8112 28.1671ZM28.5233 21.277C28.5233 21.7791 28.1196 22.1855 27.6208 22.1855C27.1221 22.1855 26.7184 21.7791 26.7184 21.277C26.7184 20.7749 27.1221 20.3685 27.6208 20.3685C28.1196 20.3685 28.5233 20.7749 28.5233 21.277ZM20.9649 4.16625C20.9649 4.66817 20.5613 5.07481 20.0625 5.07481C19.5643 5.07481 19.1601 4.66817 19.1601 4.16625C19.1601 3.66434 19.5643 3.2577 20.0625 3.2577C20.5613 3.2577 20.9649 3.66434 20.9649 4.16625ZM16.3189 0.31C12.1864 0.31 8.22349 1.96256 5.30103 4.90398C2.37909 7.8456 0.737737 11.8349 0.737737 15.995C0.737737 20.1551 2.37909 24.1443 5.30103 27.0863C8.22298 30.0277 12.1864 31.68 16.3189 31.68C20.4514 31.68 24.4143 30.0277 27.3362 27.0863C30.2581 24.1443 31.9 20.1551 31.9 15.995C31.9 11.8349 30.2581 7.84545 27.3362 4.90398C24.4143 1.96245 20.4514 0.31 16.3189 0.31ZM16.3189 9.72095C19.761 9.72095 22.5511 12.5299 22.5511 15.995C22.5511 19.4601 19.761 22.2688 16.3189 22.2688C12.8767 22.2688 10.0861 19.4601 10.0861 15.995C10.0866 12.5299 12.8767 9.7211 16.3189 9.72095Z" fill="#ef9f46" fill-opacity="0.401226" fill-rule="nonzero" opacity="1" stroke="none"/>
<g fill="#ef9f46" opacity="1" stroke="none">
<path d="M7.52467 20.818C7.25337 21.5445 6.92804 22.0745 6.54867 22.4079C6.16931 22.7412 5.70832 22.9079 5.16571 22.9079L3.49651 22.9079L3.49651 21.3698L4.31732 21.3698C4.73117 21.3698 5.03466 21.2997 5.22779 21.1594C5.42092 21.0192 5.61635 20.6938 5.81408 20.1834L5.96583 19.7695L3.02748 12.2581L5.15192 12.2581L6.91769 17.2726L8.60759 12.2581L10.732 12.2581L7.52467 20.818Z"/>
<path d="M15.9535 16.3553C15.1993 16.3553 14.6728 16.4518 14.3739 16.645C14.075 16.8381 13.9256 17.1692 13.9256 17.6382C13.9256 17.9877 14.0291 18.2659 14.236 18.4728C14.4429 18.6797 14.7234 18.7832 15.0775 18.7832C15.6109 18.7832 16.0247 18.582 16.319 18.1797C16.6133 17.7773 16.7605 17.2152 16.7605 16.4932L16.7605 16.3553L15.9535 16.3553ZM18.7677 15.5758L18.7677 19.9834L16.7605 19.9834L16.7605 19.1212C16.5168 19.4615 16.2041 19.7236 15.8224 19.9075C15.4408 20.0914 15.02 20.1834 14.5602 20.1834C13.6819 20.1834 12.9979 19.9512 12.5081 19.4867C12.0184 19.0223 11.7736 18.3739 11.7736 17.5416C11.7736 16.6404 12.0656 15.9747 12.6495 15.5448C13.2335 15.1149 14.1371 14.8999 15.3603 14.8999L16.7605 14.8999L16.7605 14.5619C16.7605 14.2354 16.6421 13.9883 16.4053 13.8204C16.1684 13.6526 15.8201 13.5687 15.3603 13.5687C14.8775 13.5687 14.4096 13.6296 13.9566 13.7514C13.5037 13.8733 13.0312 14.0676 12.5392 14.3343L12.5392 12.6099C12.9852 12.426 13.4382 12.2903 13.898 12.2029C14.3578 12.1156 14.8453 12.0719 15.3603 12.0719C16.6156 12.0719 17.4974 12.3271 18.0055 12.8375C18.5136 13.3479 18.7677 14.2607 18.7677 15.5758Z"/>
<path d="M19.6299 12.2581L21.3129 12.2581L22.2302 18.1762L23.0648 14.2791L24.6996 14.2791L25.5204 18.1762L26.4515 12.2581L28.1345 12.2581L26.7343 19.9834L24.8168 19.9834L23.8787 15.969L22.9476 19.9834L21.0301 19.9834L19.6299 12.2581Z"/>
</g>
</g>
</svg>
