<?xml version="1.0" encoding="UTF-8" standalone="no"?>
<!DOCTYPE svg PUBLIC "-//W3C//DTD SVG 1.1//EN" "http://www.w3.org/Graphics/SVG/1.1/DTD/svg11.dtd">
<!-- Created with Vectornator (http://vectornator.io/) -->
<svg height="100%" stroke-miterlimit="10" style="fill-rule:nonzero;clip-rule:evenodd;stroke-linecap:round;stroke-linejoin:round;" version="1.1" viewBox="0 0 371.168 143.577" width="100%" xml:space="preserve" xmlns="http://www.w3.org/2000/svg" xmlns:xlink="http://www.w3.org/1999/xlink">
<defs/>
<g id="layer1">
<path d="M100.508 117.153C100.508 118.128 99.7166 118.919 98.7416 118.919C97.7656 118.919 96.9756 118.128 96.9756 117.153C96.9756 116.177 97.7656 115.386 98.7416 115.386C99.7166 115.386 100.508 116.177 100.508 117.153ZM114.263 37.6393C114.263 38.615 113.473 39.4055 112.497 39.4055C111.521 39.4055 110.731 38.615 110.731 37.6393C110.731 36.6636 111.521 35.873 112.497 35.873C113.473 35.873 114.263 36.6636 114.263 37.6393ZM65.4804 80.2972C65.4804 82.3917 63.7835 84.0887 61.689 84.0887C59.5945 84.0887 57.8976 82.3917 57.8976 80.2972C57.8976 78.2028 59.5945 76.5058 61.689 76.5058C63.7835 76.5058 65.4804 78.2028 65.4804 80.2972ZM101.322 28.9096C101.322 31.0041 99.6246 32.7011 97.5296 32.7011C95.4356 32.7011 93.7386 31.0041 93.7386 28.9096C93.7386 26.8153 95.4356 25.1182 97.5296 25.1182C99.6246 25.1182 101.322 26.8153 101.322 28.9096ZM66.2154 104.3C66.2154 106.074 64.7775 107.512 63.0026 107.512C61.2278 107.512 59.7898 106.074 59.7898 104.3C59.7898 102.525 61.2278 101.087 63.0026 101.087C64.7775 101.087 66.2154 102.525 66.2154 104.3ZM79.9076 116.431C79.9076 118.206 78.4696 119.644 76.6949 119.644C74.9201 119.644 73.4821 118.206 73.4821 116.431C73.4821 114.657 74.9201 113.219 76.6949 113.219C78.4696 113.219 79.9076 114.657 79.9076 116.431ZM135.194 90.7757C135.194 92.5505 133.756 93.9886 131.981 93.9886C130.207 93.9886 128.769 92.5505 128.769 90.7757C128.769 89.001 130.207 87.5629 131.981 87.5629C133.756 87.5629 135.194 89.001 135.194 90.7757ZM53.1935 87.4032C53.1935 89.1781 51.7555 90.6161 49.9807 90.6161C48.2059 90.6161 46.7679 89.1781 46.7679 87.4032C46.7679 85.6285 48.2059 84.1904 49.9807 84.1904C51.7555 84.1904 53.1935 85.6285 53.1935 87.4032ZM39.595 56.858C39.595 58.9524 37.8981 60.6495 35.8036 60.6495C33.7092 60.6495 32.0122 58.9524 32.0122 56.858C32.0122 54.7636 33.7092 53.0666 35.8036 53.0666C37.8981 53.0666 39.595 54.7636 39.595 56.858ZM84.5126 5.91974C68.9385 5.91974 54.002 12.1067 42.9891 23.1191C31.9767 34.1321 25.7898 49.0684 25.7898 64.6424C25.7898 80.2169 31.9762 95.1533 42.9891 106.166C54.0016 117.179 68.9385 123.366 84.5126 123.366C100.087 123.366 115.024 117.179 126.037 106.166C137.049 95.1533 143.236 80.2169 143.236 64.6424C143.236 49.0684 137.049 34.1315 126.037 23.1191C115.024 12.1062 100.087 5.91974 84.5126 5.91974ZM84.5126 41.1532C97.4856 41.1532 108.002 51.67 108.002 64.6424C108.002 77.6154 97.4856 88.1316 84.5126 88.1316C71.5401 88.1316 61.0233 77.6154 61.0233 64.6424C61.0238 51.67 71.5401 41.1538 84.5126 41.1532Z" fill="#ef9f46" fill-opacity="0.401226" fill-rule="nonzero" opacity="1" stroke="none"/>
<path d="M89.6496 64.054L85.1016 64.054L85.1016 59.506L83.9236 59.506L83.9236 64.054L79.3756 64.054L79.3756 65.2315L83.9236 65.2315L83.9236 69.7796L85.1016 69.7796L85.1016 65.2315L89.6496 65.2315L89.6496 64.054Z" fill="#ef9f46" fill-opacity="0.401226" fill-rule="nonzero" opacity="1" stroke="none"/>
<path d="M202.987 111.107L198.439 111.107L198.439 106.559L197.261 106.559L197.261 111.107L192.713 111.107L192.713 112.285L197.261 112.285L197.261 116.833L198.439 116.833L198.439 112.285L202.987 112.285L202.987 111.107Z" fill="#ef9f46" fill-opacity="0.401226" fill-rule="nonzero" opacity="1" stroke="none"/>
<path d="M316.733 58.735L312.185 58.735L312.185 54.1869L311.007 54.1869L311.007 58.735L306.459 58.735L306.459 59.9125L311.007 59.9125L311.007 64.4605L312.185 64.4605L312.185 59.9125L316.733 59.9125L316.733 58.735Z" fill="#ef9f46" fill-opacity="0.401226" fill-rule="nonzero" opacity="1" stroke="none"/>
<path d="M346.207 16.1537C346.207 17.1294 345.416 17.9199 344.441 17.9199C343.465 17.9199 342.674 17.1294 342.674 16.1537C342.674 15.178 343.465 14.3875 344.441 14.3875C345.416 14.3875 346.207 15.178 346.207 16.1537Z" fill="#ef9f46" fill-opacity="0.401226" fill-rule="nonzero" opacity="1" stroke="none"/>
<path d="M257.434 102.315C257.434 103.29 256.643 104.081 255.668 104.081C254.692 104.081 253.901 103.29 253.901 102.315C253.901 101.339 254.692 100.548 255.668 100.548C256.643 100.548 257.434 101.339 257.434 102.315Z" fill="#ef9f46" fill-opacity="0.401226" fill-rule="nonzero" opacity="1" stroke="none"/>
<path d="M10.3971 137.722C10.3971 138.698 9.6066 139.489 8.6309 139.489C7.6552 139.489 6.8647 138.698 6.8647 137.722C6.8647 136.747 7.6552 135.956 8.6309 135.956C9.6066 135.956 10.3971 136.747 10.3971 137.722Z" fill="#ef9f46" fill-opacity="0.401226" fill-rule="nonzero" opacity="1" stroke="none"/>
<path d="M32.4819 24.5081C32.4819 25.4838 31.6914 26.2743 30.7157 26.2743C29.74 26.2743 28.9494 25.4838 28.9494 24.5081C28.9494 23.5324 29.74 22.7419 30.7157 22.7419C31.6914 22.7419 32.4819 23.5324 32.4819 24.5081Z" fill="#ef9f46" fill-opacity="0.401226" fill-rule="nonzero" opacity="1" stroke="none"/>
<path d="M279.276 137.223C279.276 138.199 278.486 138.99 277.51 138.99C276.535 138.99 275.744 138.199 275.744 137.223C275.744 136.248 276.535 135.457 277.51 135.457C278.486 135.457 279.276 136.248 279.276 137.223Z" fill="#ef9f46" fill-opacity="0.401226" fill-rule="nonzero" opacity="1" stroke="none"/>
<path d="M226.9 89.0591C226.9 90.0348 226.11 90.8253 225.134 90.8253C224.158 90.8253 223.368 90.0348 223.368 89.0591C223.368 88.0834 224.158 87.2929 225.134 87.2929C226.11 87.2929 226.9 88.0834 226.9 89.0591Z" fill="#ef9f46" fill-opacity="0.401226" fill-rule="nonzero" opacity="1" stroke="none"/>
<path d="M370.21 83.9837C370.21 84.9594 369.42 85.7499 368.444 85.7499C367.469 85.7499 366.678 84.9594 366.678 83.9837C366.678 83.008 367.469 82.2175 368.444 82.2175C369.42 82.2175 370.21 83.008 370.21 83.9837Z" fill="#ef9f46" fill-opacity="0.401226" fill-rule="nonzero" opacity="1" stroke="none"/>
<path d="M45.5478 2.20302C45.5478 3.17872 44.7573 3.96923 43.7816 3.96923C42.8059 3.96923 42.0154 3.17872 42.0154 2.20302C42.0154 1.22736 42.8059 0.43679 43.7816 0.43679C44.7573 0.43679 45.5478 1.22736 45.5478 2.20302Z" fill="#ef9f46" fill-opacity="0.401226" fill-rule="nonzero" opacity="1" stroke="none"/>
<path d="M219.39 16.51C219.39 17.4858 218.599 18.2763 217.624 18.2763C216.648 18.2763 215.858 17.4858 215.858 16.51C215.858 15.5344 216.648 14.7439 217.624 14.7439C218.599 14.7439 219.39 15.5344 219.39 16.51Z" fill="#ef9f46" fill-opacity="0.401226" fill-rule="nonzero" opacity="1" stroke="none"/>
<path d="M304.085 31.5948C304.085 33.6893 302.388 35.3863 300.293 35.3863C298.199 35.3863 296.502 33.6893 296.502 31.5948C296.502 29.5004 298.199 27.8034 300.293 27.8034C302.388 27.8034 304.085 29.5004 304.085 31.5948ZM343.961 51.4623C343.961 53.2371 342.523 54.6752 340.748 54.6752C338.973 54.6752 337.535 53.2371 337.535 51.4623C337.535 49.6876 338.973 48.2496 340.748 48.2496C342.523 48.2496 343.961 49.6876 343.961 51.4623ZM311.596 16.5579C300.254 16.5579 289.376 21.0636 281.356 29.0836C273.336 37.1039 268.83 47.9815 268.83 59.3235C268.83 70.6658 273.335 81.5435 281.356 89.5638C289.376 97.5837 300.254 102.09 311.596 102.09C322.938 102.09 333.815 97.5837 341.836 89.5638C349.856 81.5435 354.362 70.6658 354.362 59.3235C354.362 47.9815 349.856 37.1035 341.836 29.0836C333.815 21.0633 322.938 16.5579 311.596 16.5579ZM311.596 42.2172C321.043 42.2172 328.702 49.8762 328.702 59.3235C328.702 68.7712 321.043 76.4298 311.596 76.4298C302.148 76.4298 294.489 68.7712 294.489 59.3235C294.49 49.8762 302.148 42.2176 311.596 42.2172Z" fill="#ef9f46" fill-opacity="0.401226" fill-rule="nonzero" opacity="1" stroke="none"/>
<path d="M355.398 32.6266C355.398 34.7211 353.701 36.4181 351.607 36.4181C349.513 36.4181 347.816 34.7211 347.816 32.6266C347.816 30.5322 349.513 28.8352 351.607 28.8352C353.701 28.8352 355.398 30.5322 355.398 32.6266Z" fill="#ef9f46" fill-opacity="0.401226" fill-rule="nonzero" opacity="1" stroke="none"/>
<path d="M324.201 65.4629C324.201 63.3684 322.504 61.6714 320.41 61.6714C318.315 61.6714 316.618 63.3684 316.618 65.4629C316.618 67.5573 318.315 69.2543 320.41 69.2543C322.504 69.2543 324.201 67.5573 324.201 65.4629Z" fill="#ef9f46" fill-opacity="0.401226" fill-rule="nonzero" opacity="1" stroke="none"/>
<path d="M175.313 58.6208C175.313 60.7152 173.616 62.4123 171.522 62.4123C169.427 62.4123 167.73 60.7152 167.73 58.6208C167.73 56.5264 169.427 54.8293 171.522 54.8293C173.616 54.8293 175.313 56.5264 175.313 58.6208Z" fill="#ef9f46" fill-opacity="0.401226" fill-rule="nonzero" opacity="1" stroke="none"/>
<path d="M253.321 40.7274C253.321 42.8218 251.624 44.5189 249.53 44.5189C247.435 44.5189 245.738 42.8218 245.738 40.7274C245.738 38.633 247.435 36.936 249.53 36.936C251.624 36.936 253.321 38.633 253.321 40.7274Z" fill="#ef9f46" fill-opacity="0.401226" fill-rule="nonzero" opacity="1" stroke="none"/>
<path d="M28.8567 126.686C28.8567 128.78 27.1597 130.477 25.0653 130.477C22.9708 130.477 21.2738 128.78 21.2738 126.686C21.2738 124.591 22.9708 122.894 25.0653 122.894C27.1597 122.894 28.8567 124.591 28.8567 126.686Z" fill="#ef9f46" fill-opacity="0.401226" fill-rule="nonzero" opacity="1" stroke="none"/>
<path d="M360.995 127.628C360.995 129.723 359.298 131.42 357.204 131.42C355.109 131.42 353.412 129.723 353.412 127.628C353.412 125.534 355.109 123.837 357.204 123.837C359.298 123.837 360.995 125.534 360.995 127.628Z" fill="#ef9f46" fill-opacity="0.401226" fill-rule="nonzero" opacity="1" stroke="none"/>
<path d="M321.232 111.913C321.232 113.688 319.794 115.126 318.019 115.126C316.244 115.126 314.806 113.688 314.806 111.913C314.806 110.138 316.244 108.7 318.019 108.7C319.794 108.7 321.232 110.138 321.232 111.913Z" fill="#ef9f46" fill-opacity="0.401226" fill-rule="nonzero" opacity="1" stroke="none"/>
<path d="M6.9422 112.08C6.9422 113.854 5.5042 115.292 3.7294 115.292C1.9547 115.292 0.516597 113.854 0.516597 112.08C0.516597 110.305 1.9547 108.867 3.7294 108.867C5.5042 108.867 6.9422 110.305 6.9422 112.08Z" fill="#ef9f46" fill-opacity="0.401226" fill-rule="nonzero" opacity="1" stroke="none"/>
<path d="M21.0241 27.2872C21.0241 29.062 19.5861 30.5 17.8113 30.5C16.0365 30.5 14.5985 29.062 14.5985 27.2872C14.5985 25.5124 16.0365 24.0744 17.8113 24.0744C19.5861 24.0744 21.0241 25.5124 21.0241 27.2872Z" fill="#ef9f46" fill-opacity="0.401226" fill-rule="nonzero" opacity="1" stroke="none"/>
<path d="M246.759 124.578C246.759 126.353 245.321 127.791 243.546 127.791C241.771 127.791 240.333 126.353 240.333 124.578C240.333 122.804 241.771 121.366 243.546 121.366C245.321 121.366 246.759 122.804 246.759 124.578Z" fill="#ef9f46" fill-opacity="0.401226" fill-rule="nonzero" opacity="1" stroke="none"/>
<path d="M366.546 20.3255C366.546 22.1003 365.108 23.5384 363.334 23.5384C361.559 23.5384 360.121 22.1003 360.121 20.3255C360.121 18.5507 361.559 17.1127 363.334 17.1127C365.108 17.1127 366.546 18.5507 366.546 20.3255Z" fill="#ef9f46" fill-opacity="0.401226" fill-rule="nonzero" opacity="1" stroke="none"/>
<path d="M15.9587 15.1429C15.9587 16.1186 15.1682 16.9091 14.1925 16.9091C13.2168 16.9091 12.4263 16.1186 12.4263 15.1429C12.4263 14.1673 13.2168 13.3767 14.1925 13.3767C15.1682 13.3767 15.9587 14.1673 15.9587 15.1429Z" fill="#ef9f46" fill-opacity="0.401226" fill-rule="nonzero" opacity="1" stroke="none"/>
<path d="M182.413 73.4325C182.413 74.4082 181.622 75.1987 180.646 75.1987C179.671 75.1987 178.88 74.4082 178.88 73.4325C178.88 72.4568 179.671 71.6663 180.646 71.6663C181.622 71.6663 182.413 72.4568 182.413 73.4325Z" fill="#ef9f46" fill-opacity="0.401226" fill-rule="nonzero" opacity="1" stroke="none"/>
<path d="M124.055 137.76C124.055 138.735 123.265 139.526 122.289 139.526C121.313 139.526 120.523 138.735 120.523 137.76C120.523 136.784 121.313 135.994 122.289 135.994C123.265 135.994 124.055 136.784 124.055 137.76Z" fill="#ef9f46" fill-opacity="0.401226" fill-rule="nonzero" opacity="1" stroke="none"/>
<path d="M173.694 97.9848C173.694 100.079 171.997 101.776 169.902 101.776C167.808 101.776 166.111 100.079 166.111 97.9848C166.111 95.8904 167.808 94.1934 169.902 94.1934C171.997 94.1934 173.694 95.8904 173.694 97.9848ZM183.453 133.341C183.453 134.316 182.662 135.107 181.687 135.107C180.711 135.107 179.92 134.316 179.92 133.341C179.92 132.365 180.711 131.574 181.687 131.574C182.662 131.574 183.453 132.365 183.453 133.341ZM210.555 135.358C210.555 136.333 209.764 137.124 208.788 137.124C207.813 137.124 207.022 136.333 207.022 135.358C207.022 134.382 207.813 133.592 208.788 133.592C209.764 133.592 210.555 134.382 210.555 135.358ZM221.733 121.964C221.733 122.94 220.943 123.73 219.967 123.73C218.991 123.73 218.201 122.94 218.201 121.964C218.201 120.988 218.991 120.198 219.967 120.198C220.943 120.198 221.733 120.988 221.733 121.964ZM206.942 88.7012C206.942 89.6769 206.152 90.4674 205.176 90.4674C204.201 90.4674 203.41 89.6769 203.41 88.7012C203.41 87.7255 204.201 86.935 205.176 86.935C206.152 86.935 206.942 87.7255 206.942 88.7012ZM197.85 81.2048C189.763 81.2048 182.008 84.4173 176.289 90.1353C170.571 95.8537 167.359 103.609 167.359 111.696C167.359 119.783 170.571 127.538 176.289 133.257C182.007 138.975 189.763 142.187 197.85 142.187C205.937 142.187 213.692 138.975 219.41 133.257C225.128 127.538 228.341 119.783 228.341 111.696C228.341 103.609 225.128 95.8534 219.41 90.1353C213.692 84.4171 205.937 81.2048 197.85 81.2048ZM197.85 99.4993C204.586 99.4993 210.046 104.96 210.046 111.696C210.046 118.432 204.586 123.892 197.85 123.892C191.114 123.892 185.653 118.432 185.653 111.696C185.654 104.96 191.114 99.4996 197.85 99.4993Z" fill="#ef9f46" fill-opacity="0.401226" fill-rule="nonzero" opacity="1" stroke="none"/>
<g fill="#ef9f46" opacity="1" stroke="none">
<path d="M24.6913 86.4156C23.9999 88.2672 23.1708 89.6177 22.204 90.4674C21.2372 91.317 20.0624 91.7418 18.6796 91.7418L14.4257 91.7418L14.4257 87.8219L16.5175 87.8219C17.5721 87.8219 18.3456 87.6431 18.8378 87.2857C19.33 86.9283 19.828 86.0992 20.3319 84.7984L20.7186 83.7437L13.2303 64.6011L18.6444 64.6011L23.1444 77.3804L27.451 64.6011L32.8651 64.6011L24.6913 86.4156Z"/>
<path d="M53.2382 83.3219C52.0428 83.814 50.8241 84.1832 49.5819 84.4293C48.3397 84.6754 47.0272 84.7984 45.6444 84.7984C42.3514 84.7984 39.8348 83.9166 38.0946 82.1529C36.3544 80.3892 35.4842 77.8492 35.4842 74.5328C35.4842 71.3219 36.3221 68.7847 37.9979 66.9215C39.6737 65.0582 41.9589 64.1265 44.8534 64.1265C47.7714 64.1265 50.036 64.9908 51.6473 66.7193C53.2587 68.4478 54.0643 70.8824 54.0643 74.023L54.0643 76.1148L40.7225 76.1148C40.7342 77.6617 41.1913 78.816 42.0936 79.5777C42.996 80.3394 44.3436 80.7203 46.1366 80.7203C47.3202 80.7203 48.4862 80.5504 49.6346 80.2105C50.7831 79.8707 51.9842 79.3316 53.2382 78.5933L53.2382 83.3219ZM48.8788 72.2476C48.8553 70.8883 48.5067 69.8599 47.8329 69.1627C47.1591 68.4654 46.1659 68.1168 44.8534 68.1168C43.6698 68.1168 42.7264 68.4771 42.0233 69.1978C41.3202 69.9185 40.9042 70.941 40.7753 72.2652L48.8788 72.2476Z"/>
<path d="M67.6698 59.0113L67.6698 64.6011L74.4022 64.6011L74.4022 68.5562L67.6698 68.5562L67.6698 77.8726C67.6698 78.7515 67.8837 79.3814 68.3114 79.7623C68.7391 80.1431 69.451 80.3336 70.4471 80.3336L74.4022 80.3336L74.4022 84.2886L70.078 84.2886C67.1249 84.2886 65.1268 83.817 64.0839 82.8736C63.0409 81.9302 62.5194 80.1812 62.5194 77.6265L62.5194 68.5562L57.4921 68.5562L57.4921 64.6011L62.5194 64.6011L62.5194 59.0113L67.6698 59.0113Z"/>
<path d="M98.8885 87.6285L98.8885 91.1441L77.2147 91.1441L77.2147 87.6285L98.8885 87.6285Z"/>
<path d="M111.193 75.0426C109.271 75.0426 107.93 75.2886 107.168 75.7808C106.406 76.273 106.025 77.1168 106.025 78.3121C106.025 79.2027 106.289 79.9117 106.816 80.439C107.344 80.9664 108.058 81.2301 108.961 81.2301C110.32 81.2301 111.375 80.7174 112.125 79.692C112.875 78.6666 113.25 77.234 113.25 75.3941L113.25 75.0426L111.193 75.0426ZM118.365 73.0562L118.365 84.2886L113.25 84.2886L113.25 82.0914C112.629 82.9586 111.832 83.6265 110.859 84.0953C109.887 84.564 108.814 84.7984 107.642 84.7984C105.404 84.7984 103.661 84.2066 102.413 83.023C101.165 81.8394 100.541 80.1871 100.541 78.066C100.541 75.7691 101.285 74.0728 102.773 72.9771C104.262 71.8814 106.564 71.3336 109.682 71.3336L113.25 71.3336L113.25 70.4722C113.25 69.6402 112.948 69.0103 112.345 68.5826C111.741 68.1549 110.853 67.941 109.682 67.941C108.451 67.941 107.259 68.0963 106.104 68.4068C104.95 68.7174 103.746 69.2125 102.492 69.8922L102.492 65.4976C103.629 65.0289 104.783 64.6832 105.955 64.4605C107.127 64.2379 108.369 64.1265 109.682 64.1265C112.881 64.1265 115.128 64.7769 116.423 66.0777C117.718 67.3785 118.365 69.7047 118.365 73.0562Z"/>
<path d="M139.389 71.5094L139.389 84.2886L134.273 84.2886L134.273 72.3004C134.273 70.8707 134.071 69.8482 133.667 69.233C133.263 68.6177 132.603 68.3101 131.689 68.3101C130.764 68.3101 130.034 68.7261 129.501 69.5582C128.968 70.3902 128.701 71.5445 128.701 73.0211L128.701 84.2886L123.586 84.2886L123.586 64.6011L128.701 64.6011L128.701 67.5543C129.064 66.4644 129.685 65.6207 130.564 65.023C131.443 64.4254 132.504 64.1265 133.746 64.1265C135.609 64.1265 137.015 64.7447 137.965 65.981C138.914 67.2174 139.389 69.0601 139.389 71.5094Z"/>
<path d="M153.064 68.3101C151.834 68.3101 150.867 68.8521 150.164 69.9361C149.461 71.0201 149.109 72.5289 149.109 74.4625C149.109 76.3961 149.461 77.9049 150.164 78.9888C150.867 80.0728 151.834 80.6148 153.064 80.6148C154.307 80.6148 155.279 80.0728 155.982 78.9888C156.685 77.9049 157.037 76.3961 157.037 74.4625C157.037 72.5289 156.685 71.0201 155.982 69.9361C155.279 68.8521 154.307 68.3101 153.064 68.3101ZM143.959 74.4625C143.959 71.2867 144.782 68.7701 146.429 66.9127C148.075 65.0552 150.287 64.1265 153.064 64.1265C155.853 64.1265 158.071 65.0552 159.718 66.9127C161.364 68.7701 162.187 71.2867 162.187 74.4625C162.187 77.6383 161.364 80.1549 159.718 82.0123C158.071 83.8697 155.853 84.7984 153.064 84.7984C150.287 84.7984 148.075 83.8697 146.429 82.0123C144.782 80.1549 143.959 77.6383 143.959 74.4625Z"/>
<path d="M176.039 59.0113L176.039 64.6011L182.771 64.6011L182.771 68.5562L176.039 68.5562L176.039 77.8726C176.039 78.7515 176.253 79.3814 176.681 79.7623C177.108 80.1431 177.82 80.3336 178.816 80.3336L182.771 80.3336L182.771 84.2886L178.447 84.2886C175.494 84.2886 173.496 83.817 172.453 82.8736C171.41 81.9302 170.889 80.1812 170.889 77.6265L170.889 68.5562L165.861 68.5562L165.861 64.6011L170.889 64.6011L170.889 59.0113L176.039 59.0113Z"/>
<path d="M204.41 71.5094L204.41 84.2886L199.295 84.2886L199.295 72.3004C199.295 70.8824 199.093 69.8687 198.688 69.2594C198.284 68.65 197.625 68.3453 196.711 68.3453C195.773 68.3453 195.041 68.7584 194.514 69.5845C193.986 70.4107 193.723 71.5562 193.723 73.0211L193.723 84.2886L188.607 84.2886L188.607 56.9371L193.723 56.9371L193.723 67.5543C194.086 66.4644 194.707 65.6207 195.586 65.023C196.465 64.4254 197.525 64.1265 198.767 64.1265C200.631 64.1265 202.037 64.7447 202.986 65.981C203.935 67.2174 204.41 69.0601 204.41 71.5094Z"/>
<path d="M226.629 83.3219C225.433 83.814 224.215 84.1832 222.973 84.4293C221.73 84.6754 220.418 84.7984 219.035 84.7984C215.742 84.7984 213.225 83.9166 211.485 82.1529C209.745 80.3892 208.875 77.8492 208.875 74.5328C208.875 71.3219 209.713 68.7847 211.389 66.9215C213.064 65.0582 215.349 64.1265 218.244 64.1265C221.162 64.1265 223.427 64.9908 225.038 66.7193C226.649 68.4478 227.455 70.8824 227.455 74.023L227.455 76.1148L214.113 76.1148C214.125 77.6617 214.582 78.816 215.484 79.5777C216.387 80.3394 217.734 80.7203 219.527 80.7203C220.711 80.7203 221.877 80.5504 223.025 80.2105C224.174 79.8707 225.375 79.3316 226.629 78.5933L226.629 83.3219ZM222.269 72.2476C222.246 70.8883 221.897 69.8599 221.224 69.1627C220.55 68.4654 219.557 68.1168 218.244 68.1168C217.06 68.1168 216.117 68.4771 215.414 69.1978C214.711 69.9185 214.295 70.941 214.166 72.2652L222.269 72.2476Z"/>
<path d="M249.164 70.0328C248.601 69.5172 247.942 69.1304 247.186 68.8726C246.431 68.6148 245.601 68.4859 244.699 68.4859C243.609 68.4859 242.657 68.6763 241.843 69.0572C241.028 69.4381 240.398 69.9918 239.953 70.7183C239.672 71.1636 239.475 71.7027 239.364 72.3355C239.253 72.9683 239.197 73.9293 239.197 75.2183L239.197 84.2886L234.047 84.2886L234.047 64.6011L239.197 64.6011L239.197 67.6597C239.701 66.5347 240.474 65.6646 241.517 65.0494C242.56 64.4342 243.779 64.1265 245.174 64.1265C245.877 64.1265 246.565 64.2115 247.239 64.3814C247.913 64.5513 248.555 64.8004 249.164 65.1285L249.164 70.0328Z"/>
<path d="M272.279 87.6285L272.279 91.1441L250.605 91.1441L250.605 87.6285L272.279 87.6285Z"/>
<path d="M272.279 64.6011L276.568 64.6011L278.906 79.6832L281.033 69.7515L285.199 69.7515L287.291 79.6832L289.664 64.6011L293.953 64.6011L290.385 84.2886L285.498 84.2886L283.107 74.0582L280.734 84.2886L275.848 84.2886L272.279 64.6011Z"/>
<path d="M297.838 64.6011L308.033 64.6011L308.033 80.3336L314.432 80.3336L314.432 84.2886L296.467 84.2886L296.467 80.3336L302.883 80.3336L302.883 68.5562L297.838 68.5562L297.838 64.6011ZM302.883 55.0211L308.033 55.0211L308.033 61.0328L302.883 61.0328L302.883 55.0211Z"/>
<path d="M318.896 64.6011L334.629 64.6011L334.629 68.6265L324.275 80.439L334.629 80.439L334.629 84.2886L318.474 84.2886L318.474 80.2633L328.846 68.4508L318.896 68.4508L318.896 64.6011Z"/>
<path d="M340.57 64.6011L356.303 64.6011L356.303 68.6265L345.949 80.439L356.303 80.439L356.303 84.2886L340.148 84.2886L340.148 80.2633L350.519 68.4508L340.57 68.4508L340.57 64.6011Z"/>
</g>
</g>
</svg>
