<?xml version="1.0" encoding="UTF-8" standalone="no"?>
<!DOCTYPE svg PUBLIC "-//W3C//DTD SVG 1.1//EN" "http://www.w3.org/Graphics/SVG/1.1/DTD/svg11.dtd">
<!-- Created with Vectornator (http://vectornator.io/) -->
<svg height="100%" stroke-miterlimit="10" style="fill-rule:nonzero;clip-rule:evenodd;stroke-linecap:round;stroke-linejoin:round;" version="1.1" viewBox="0 0 32 32" width="100%" xml:space="preserve" xmlns="http://www.w3.org/2000/svg" xmlns:xlink="http://www.w3.org/1999/xlink">
<defs/>
<g id="layer1">
<path d="M5.22496 0L26.775 0C29.6607 0 32 2.3393 32 5.22496L32 26.775C32 29.6607 29.6607 32 26.775 32L5.22496 32C2.3393 32 0 29.6607 0 26.775L0 5.22496C0 2.3393 2.3393 0 5.22496 0Z" fill="#000000" fill-rule="nonzero" opacity="1" stroke="none"/>
<path d="M16 1C12.0217 1 8.20656 2.58039 5.3931 5.39335C3.81453 6.97203 2.6242 8.86623 1.88349 10.9278C1.30428 12.5398 1 14.2542 1 16C1 19.9784 2.58014 23.7934 5.3931 26.6069C8.20606 29.4199 12.0217 31 16 31C19.9784 31 23.7935 29.4199 26.6064 26.6069C29.4193 23.7934 31 19.9784 31 16C31 12.0216 29.4193 8.20636 26.6064 5.39335C23.7935 2.58028 19.9784 1 16 1ZM16 9.99995C19.3137 9.99995 21.9998 12.6862 21.9998 16C21.9998 19.3138 19.3137 21.9998 16 21.9998C12.6862 21.9998 9.9997 19.3138 9.9997 16C10.0002 12.6862 12.6862 10.0001 16 9.99995Z" fill="#ed8f26" fill-opacity="0.331042" fill-rule="nonzero" opacity="1" stroke="none"/>
<g opacity="1">
<path d="M6.6865 21.2538C6.37287 22.0937 5.99677 22.7064 5.5582 23.0918C5.11964 23.4771 4.58672 23.6698 3.95943 23.6698L2.02976 23.6698L2.02976 21.8917L2.97865 21.8917C3.45708 21.8917 3.80793 21.8107 4.0312 21.6485C4.25447 21.4864 4.48039 21.1102 4.70898 20.5202L4.88441 20.0417L1.48754 11.3582L3.94349 11.3582L5.9848 17.1551L7.93841 11.3582L10.3944 11.3582L6.6865 21.2538Z" fill="#ffac4f" fill-rule="nonzero" opacity="1" stroke="none"/>
<path d="M16.4307 16.0947C15.5588 16.0947 14.9501 16.2063 14.6046 16.4296C14.259 16.6528 14.0863 17.0356 14.0863 17.5778C14.0863 17.9818 14.206 18.3034 14.4452 18.5426C14.6843 18.7818 15.0086 18.9015 15.418 18.9015C16.0346 18.9015 16.513 18.6689 16.8532 18.2038C17.1934 17.7386 17.3636 17.0888 17.3636 16.2541L17.3636 16.0947L16.4307 16.0947ZM19.684 15.1936L19.684 20.289L17.3636 20.289L17.3636 19.2922C17.0819 19.6856 16.7204 19.9886 16.2791 20.2012C15.838 20.4138 15.3515 20.5202 14.8199 20.5202C13.8046 20.5202 13.0139 20.2517 12.4476 19.7148C11.8815 19.1779 11.5985 18.4283 11.5985 17.4661C11.5985 16.4243 11.9361 15.6547 12.6111 15.1577C13.2862 14.6607 14.3308 14.4122 15.7449 14.4122L17.3636 14.4122L17.3636 14.0215C17.3636 13.644 17.2267 13.3583 16.953 13.1642C16.6791 12.9703 16.2764 12.8733 15.7449 12.8733C15.1868 12.8733 14.6458 12.9437 14.1222 13.0845C13.5986 13.2254 13.0523 13.45 12.4836 13.7583L12.4836 11.7648C12.9992 11.5523 13.5229 11.3954 14.0544 11.2943C14.586 11.1934 15.1495 11.1429 15.7449 11.1429C17.1961 11.1429 18.2155 11.4379 18.8029 12.028C19.3903 12.618 19.684 13.6732 19.684 15.1936Z" fill="#ffac4f" fill-rule="nonzero" opacity="1" stroke="none"/>
<path d="M20.6808 11.3582L22.6264 11.3582L23.6868 18.1998L24.6517 13.6945L26.5416 13.6945L27.4904 18.1998L28.5668 11.3582L30.5125 11.3582L28.8938 20.289L26.6771 20.289L25.5926 15.6481L24.5162 20.289L22.2995 20.289L20.6808 11.3582Z" fill="#ffac4f" fill-rule="nonzero" opacity="1" stroke="none"/>
</g>
</g>
</svg>
