<?xml version="1.0" encoding="UTF-8" standalone="no"?>
<!DOCTYPE svg PUBLIC "-//W3C//DTD SVG 1.1//EN" "http://www.w3.org/Graphics/SVG/1.1/DTD/svg11.dtd">
<!-- Created with Vectornator (http://vectornator.io/) -->
<svg height="100%" stroke-miterlimit="10" style="fill-rule:nonzero;clip-rule:evenodd;stroke-linecap:round;stroke-linejoin:round;" version="1.1" viewBox="0 0 32 32" width="100%" xml:space="preserve" xmlns="http://www.w3.org/2000/svg" xmlns:xlink="http://www.w3.org/1999/xlink">
<defs/>
<g id="layer1">
<path d="M5.22496 0L26.775 0C29.6607 0 32 2.3393 32 5.22496L32 26.775C32 29.6607 29.6607 32 26.775 32L5.22496 32C2.3393 32 0 29.6607 0 26.775L0 5.22496C0 2.3393 2.3393 0 5.22496 0Z" fill="#ffffff" fill-rule="nonzero" opacity="1" stroke="none"/>
<path d="M30.5002 5.04689C30.5002 5.54885 30.0938 5.95553 29.5917 5.95553C29.0896 5.95553 28.6831 5.54885 28.6831 5.04689C28.6831 4.54493 29.0896 4.13825 29.5917 4.13825C30.0938 4.13825 30.5002 4.54493 30.5002 5.04689Z" fill="#ed8f26" fill-opacity="0.401226" fill-rule="nonzero" opacity="1" stroke="none"/>
<path d="M30.538 28.6102C30.538 29.5233 29.7982 30.2631 28.885 30.2631C27.9719 30.2631 27.2321 29.5233 27.2321 28.6102C27.2321 27.6975 27.9719 26.9577 28.885 26.9577C29.7982 26.9577 30.538 27.6975 30.538 28.6102Z" fill="#ed8f26" fill-opacity="0.401226" fill-rule="nonzero" opacity="1" stroke="none"/>
<path d="M3.97497 8.94187C3.97497 10.0193 3.10779 10.892 2.03723 10.892C0.96718 10.892 0.1 10.0193 0.1 8.94187C0.1 7.86448 0.96718 6.99152 2.03723 6.99152C3.10779 6.99152 3.97497 7.86448 3.97497 8.94187ZM8.96189 27.1295C8.96189 27.631 8.55769 28.0379 8.05945 28.0379C7.56071 28.0379 7.1565 27.631 7.1565 27.1295C7.1565 26.6274 7.56071 26.2205 8.05945 26.2205C8.55769 26.2205 8.96189 26.6274 8.96189 27.1295ZM22.8112 28.1671C22.8112 28.6686 22.407 29.0755 21.9083 29.0755C21.41 29.0755 21.0058 28.6686 21.0058 28.1671C21.0058 27.665 21.41 27.2586 21.9083 27.2586C22.407 27.2586 22.8112 27.665 22.8112 28.1671ZM28.5233 21.277C28.5233 21.7791 28.1196 22.1855 27.6208 22.1855C27.1221 22.1855 26.7184 21.7791 26.7184 21.277C26.7184 20.7749 27.1221 20.3685 27.6208 20.3685C28.1196 20.3685 28.5233 20.7749 28.5233 21.277ZM20.9649 4.16625C20.9649 4.66817 20.5613 5.07481 20.0625 5.07481C19.5643 5.07481 19.1601 4.66817 19.1601 4.16625C19.1601 3.66434 19.5643 3.2577 20.0625 3.2577C20.5613 3.2577 20.9649 3.66434 20.9649 4.16625ZM16.3189 0.31C12.1864 0.31 8.22349 1.96256 5.30103 4.90398C2.37909 7.8456 0.737737 11.8349 0.737737 15.995C0.737737 20.1551 2.37909 24.1443 5.30103 27.0863C8.22298 30.0277 12.1864 31.68 16.3189 31.68C20.4514 31.68 24.4143 30.0277 27.3362 27.0863C30.2581 24.1443 31.9 20.1551 31.9 15.995C31.9 11.8349 30.2581 7.84545 27.3362 4.90398C24.4143 1.96245 20.4514 0.31 16.3189 0.31ZM16.3189 9.72095C19.761 9.72095 22.5511 12.5299 22.5511 15.995C22.5511 19.4601 19.761 22.2688 16.3189 22.2688C12.8767 22.2688 10.0861 19.4601 10.0861 15.995C10.0866 12.5299 12.8767 9.7211 16.3189 9.72095Z" fill="#ed8f26" fill-opacity="0.401226" fill-rule="nonzero" opacity="1" stroke="none"/>
<g opacity="1">
<path d="M7.11244 21.2538C6.79881 22.0937 6.42271 22.7064 5.98414 23.0918C5.54558 23.4771 5.01266 23.6698 4.38537 23.6698L2.4557 23.6698L2.4557 21.8917L3.40459 21.8917C3.88302 21.8917 4.23387 21.8107 4.45714 21.6485C4.68041 21.4864 4.90633 21.1102 5.13492 20.5202L5.31035 20.0417L1.91348 11.3582L4.36943 11.3582L6.41074 17.1551L8.36435 11.3582L10.8203 11.3582L7.11244 21.2538Z" fill="#ed8f26" fill-rule="nonzero" opacity="1" stroke="none"/>
<path d="M16.8566 16.0947C15.9847 16.0947 15.376 16.2063 15.0305 16.4296C14.6849 16.6528 14.5122 17.0356 14.5122 17.5778C14.5122 17.9818 14.6319 18.3034 14.8711 18.5426C15.1102 18.7818 15.4345 18.9015 15.8439 18.9015C16.4605 18.9015 16.9389 18.6689 17.2791 18.2038C17.6193 17.7386 17.7895 17.0888 17.7895 16.2541L17.7895 16.0947L16.8566 16.0947ZM20.1099 15.1936L20.1099 20.289L17.7895 20.289L17.7895 19.2922C17.5078 19.6856 17.1463 19.9886 16.705 20.2012C16.2639 20.4138 15.7774 20.5202 15.2458 20.5202C14.2305 20.5202 13.4398 20.2517 12.8735 19.7148C12.3074 19.1779 12.0244 18.4283 12.0244 17.4661C12.0244 16.4243 12.362 15.6547 13.037 15.1577C13.7121 14.6607 14.7567 14.4122 16.1708 14.4122L17.7895 14.4122L17.7895 14.0215C17.7895 13.644 17.6526 13.3583 17.3789 13.1642C17.105 12.9703 16.7023 12.8733 16.1708 12.8733C15.6127 12.8733 15.0717 12.9437 14.5481 13.0845C14.0245 13.2254 13.4782 13.45 12.9095 13.7583L12.9095 11.7648C13.4251 11.5523 13.9488 11.3954 14.4803 11.2943C15.0119 11.1934 15.5754 11.1429 16.1708 11.1429C17.622 11.1429 18.6414 11.4379 19.2288 12.028C19.8162 12.618 20.1099 13.6732 20.1099 15.1936Z" fill="#ed8f26" fill-rule="nonzero" opacity="1" stroke="none"/>
<path d="M21.1067 11.3582L23.0523 11.3582L24.1127 18.1998L25.0776 13.6945L26.9675 13.6945L27.9163 18.1998L28.9927 11.3582L30.9384 11.3582L29.3197 20.289L27.103 20.289L26.0185 15.6481L24.9421 20.289L22.7254 20.289L21.1067 11.3582Z" fill="#ed8f26" fill-rule="nonzero" opacity="1" stroke="none"/>
</g>
</g>
</svg>
