<?xml version="1.0" encoding="UTF-8" standalone="no"?>
<!DOCTYPE svg PUBLIC "-//W3C//DTD SVG 1.1//EN" "http://www.w3.org/Graphics/SVG/1.1/DTD/svg11.dtd">
<!-- Created with Vectornator (http://vectornator.io/) -->
<svg height="100%" stroke-miterlimit="10" style="fill-rule:nonzero;clip-rule:evenodd;stroke-linecap:round;stroke-linejoin:round;" version="1.1" viewBox="0 0 830.829 143.577" width="100%" xml:space="preserve" xmlns="http://www.w3.org/2000/svg" xmlns:xlink="http://www.w3.org/1999/xlink">
<defs>
<filter color-interpolation-filters="sRGB" filterUnits="userSpaceOnUse" height="121.781" id="Filter" width="812.743" x="11.2114" y="10.8985">
<feDropShadow dx="0" dy="-0" flood-color="#000000" flood-opacity="0.349241" in="SourceGraphic" result="Shadow" stdDeviation="7.5"/>
</filter>
</defs>
<clipPath id="ArtboardFrame">
<rect height="143.577" width="830.829" x="0" y="0"/>
</clipPath>
<g clip-path="url(#ArtboardFrame)" id="layer1">
<path d="M715.014 122.738C715.014 124.667 713.45 126.23 711.522 126.23C709.593 126.23 708.029 124.667 708.029 122.738C708.029 120.809 709.593 119.246 711.522 119.246C713.45 119.246 715.014 120.809 715.014 122.738Z" fill="#ed8f26" fill-opacity="0.329476" fill-rule="nonzero" opacity="1" stroke="none"/>
<path d="M555.506 133.083C555.506 135.011 553.942 136.574 552.014 136.574C550.085 136.574 548.521 135.011 548.521 133.083C548.521 131.153 550.085 129.59 552.014 129.59C553.942 129.59 555.506 131.153 555.506 133.083Z" fill="#ed8f26" fill-opacity="0.329476" fill-rule="nonzero" opacity="1" stroke="none"/>
<path d="M29.0975 14.3512C27.3561 15.1825 25.2715 14.4458 24.4405 12.705C23.6095 10.9641 24.3475 8.88005 26.0889 8.04878C27.8285 7.21836 29.913 7.95505 30.744 9.69587C31.575 11.4367 30.837 13.5208 29.0975 14.3512Z" fill="#ed8f26" fill-opacity="0.329476" fill-rule="nonzero" opacity="1" stroke="none"/>
<path d="M110.765-20.7447C110.765-18.8157 109.203-17.2528 107.274-17.2528C105.345-17.2528 103.782-18.8157 103.782-20.7447C103.782-22.6737 105.345-24.2365 107.274-24.2365C109.203-24.2365 110.765-22.6737 110.765-20.7447Z" fill="#ed8f26" fill-opacity="0.329476" fill-rule="nonzero" opacity="1" stroke="none"/>
<path d="M602.794 138.463C602.794 140.392 601.233 141.956 599.303 141.956C597.375 141.956 595.811 140.392 595.811 138.463C595.811 136.535 597.375 134.971 599.303 134.971C601.233 134.971 602.794 136.535 602.794 138.463Z" fill="#ed8f26" fill-opacity="0.329476" fill-rule="nonzero" opacity="1" stroke="none"/>
<path d="M495.139 106.876C495.139 108.805 493.577 110.367 491.647 110.367C489.718 110.367 488.156 108.805 488.156 106.876C488.156 104.947 489.718 103.384 491.647 103.384C493.577 103.384 495.139 104.947 495.139 106.876Z" fill="#ed8f26" fill-opacity="0.329476" fill-rule="nonzero" opacity="1" stroke="none"/>
<path d="M778.469 96.8412C778.469 98.7702 776.907 100.333 774.977 100.333C773.05 100.333 771.486 98.7702 771.486 96.8412C771.486 94.9122 773.05 93.3494 774.977 93.3494C776.907 93.3494 778.469 94.9122 778.469 96.8412Z" fill="#ed8f26" fill-opacity="0.329476" fill-rule="nonzero" opacity="1" stroke="none"/>
<path d="M480.291 36.4427C480.291 38.3719 478.727 39.9348 476.8 39.9348C474.87 39.9348 473.308 38.3719 473.308 36.4427C473.308 34.5139 474.87 32.9511 476.8 32.9511C478.727 32.9511 480.291 34.5139 480.291 36.4427Z" fill="#ed8f26" fill-opacity="0.329476" fill-rule="nonzero" opacity="1" stroke="none"/>
<path d="M766.6 2.4403C766.6 6.58122 763.245 9.93626 759.105 9.93626C754.965 9.93626 751.61 6.58122 751.61 2.4403C751.61-1.70042 754.965-5.05547 759.105-5.05547C763.245-5.05547 766.6-1.70042 766.6 2.4403Z" fill="#ed8f26" fill-opacity="0.329476" fill-rule="nonzero" opacity="1" stroke="none"/>
<path d="M687.507 60.2248C687.507 56.0839 684.152 52.7288 680.012 52.7288C675.87 52.7288 672.515 56.0839 672.515 60.2248C672.515 64.3655 675.87 67.7205 680.012 67.7205C684.152 67.7205 687.507 64.3655 687.507 60.2248Z" fill="#ed8f26" fill-opacity="0.329476" fill-rule="nonzero" opacity="1" stroke="none"/>
<path d="M393.149 46.6976C393.149 50.8384 389.794 54.1936 385.654 54.1936C381.512 54.1936 378.157 50.8384 378.157 46.6976C378.157 42.5569 381.512 39.2017 385.654 39.2017C389.794 39.2017 393.149 42.5569 393.149 46.6976Z" fill="#ed8f26" fill-opacity="0.329476" fill-rule="nonzero" opacity="1" stroke="none"/>
<path d="M547.374 11.3216C547.374 15.4623 544.019 18.8176 539.879 18.8176C535.737 18.8176 532.382 15.4623 532.382 11.3216C532.382 7.18088 535.737 3.82583 539.879 3.82583C544.019 3.82583 547.374 7.18088 547.374 11.3216Z" fill="#ed8f26" fill-opacity="0.329476" fill-rule="nonzero" opacity="1" stroke="none"/>
<path d="M64.5099 37.8869C60.7739 39.6704 56.3008 38.088 54.5169 34.3512C52.733 30.6143 54.3154 26.1412 58.0515 24.3577C61.7893 22.5733 66.2624 24.1557 68.0463 27.8927C69.8302 31.6295 68.2478 36.1026 64.5099 37.8869Z" fill="#ed8f26" fill-opacity="0.329476" fill-rule="nonzero" opacity="1" stroke="none"/>
<path d="M783.242 138.118C783.242 142.26 779.887 145.615 775.747 145.615C771.605 145.615 768.25 142.26 768.25 138.118C768.25 133.978 771.605 130.623 775.747 130.623C779.887 130.623 783.242 133.978 783.242 138.118Z" fill="#ed8f26" fill-opacity="0.329476" fill-rule="nonzero" opacity="1" stroke="none"/>
<path d="M681.637 143.059C681.637 146.568 678.794 149.411 675.285 149.411C671.776 149.411 668.933 146.568 668.933 143.059C668.933 139.549 671.776 136.706 675.285 136.706C678.794 136.706 681.637 139.549 681.637 143.059Z" fill="#ed8f26" fill-opacity="0.329476" fill-rule="nonzero" opacity="1" stroke="none"/>
<path d="M57.773 145.259C57.773 148.766 54.93 151.609 51.4212 151.609C47.9125 151.609 45.0693 148.766 45.0693 145.259C45.0693 141.749 47.9125 138.906 51.4212 138.906C54.93 138.906 57.773 141.749 57.773 145.259Z" fill="#ed8f26" fill-opacity="0.329476" fill-rule="nonzero" opacity="1" stroke="none"/>
<g opacity="1">
<path d="M256.604 143.258C256.819 145.174 255.438 146.902 253.522 147.116C251.605 147.331 249.878 145.95 249.664 144.035C249.45 142.117 250.828 140.389 252.745 140.175C254.661 139.96 256.39 141.34 256.604 143.258ZM266.149-15.9933C266.363-14.0762 264.985-12.3494 263.067-12.1348C261.15-11.9202 259.424-13.2997 259.209-15.2167C258.995-17.1338 260.373-18.8608 262.291-19.0754C264.208-19.29 265.934-17.9103 266.149-15.9933ZM179.68 78.5453C180.14 82.6605 177.18 86.3678 173.064 86.8283C168.949 87.2888 165.242 84.3276 164.781 80.2124C164.321 76.0973 167.282 72.39 171.397 71.9295C175.512 71.469 179.22 74.4302 179.68 78.5453ZM238.803-30.3001C239.264-26.1848 236.302-22.4774 232.186-22.0168C228.071-21.5565 224.364-24.5176 223.903-28.6328C223.443-32.7477 226.404-36.4552 230.518-36.9156C234.635-37.3762 238.343-34.4149 238.803-30.3001ZM186.401 125.544C186.791 129.029 184.282 132.171 180.795 132.561C177.308 132.951 174.166 130.442 173.776 126.957C173.386 123.469 175.895 120.328 179.382 119.937C182.87 119.547 186.011 122.056 186.401 125.544ZM215.97 146.368C216.361 149.856 213.851 152.997 210.365 153.388C206.878 153.778 203.736 151.269 203.346 147.781C202.956 144.296 205.465 141.154 208.952 140.764C212.439 140.374 215.58 142.883 215.97 146.368ZM318.956 83.8064C319.346 87.2935 316.837 90.4352 313.349 90.8255C309.864 91.2155 306.722 88.7061 306.332 85.219C305.942 81.7321 308.451 78.5904 311.937 78.2004C315.424 77.8101 318.566 80.3195 318.956 83.8064ZM157.101 95.2083C157.491 98.6956 154.982 101.837 151.495 102.227C148.008 102.618 144.867 100.108 144.476 96.621C144.086 93.1341 146.595 89.9924 150.082 89.6022C153.57 89.212 156.711 91.7214 157.101 95.2083ZM123.668 38.1833C124.128 42.2984 121.167 46.0059 117.052 46.4664C112.937 46.9268 109.23 43.9655 108.769 39.8504C108.309 35.7354 111.27 32.0281 115.385 31.5676C119.5 31.1071 123.207 34.0683 123.668 38.1833ZM200.722-71.7745C170.122-68.3505 142.136-52.9106 122.919-28.8525C103.703-4.7932 94.8309 25.9136 98.2549 56.5131C101.679 87.1136 117.118 115.1 141.177 134.317C165.235 153.534 195.943 162.406 226.543 158.982C257.143 155.558 285.131 140.118 304.348 116.058C323.563 91.9996 332.435 61.2926 329.011 30.6921C325.587 0.0926222 310.147-27.8949 286.09-47.1108C262.03-66.3275 231.322-75.1986 200.722-71.7745ZM208.468-2.54847C233.957-5.40063 256.932 12.9505 259.784 38.4385C262.636 63.9276 244.286 86.9017 218.797 89.7538C193.308 92.6059 170.333 74.256 167.481 48.7669C164.63 23.2788 182.98 0.304757 208.468-2.54847Z" fill="#ed8f26" fill-opacity="0.329476" fill-rule="nonzero" opacity="1" stroke="none"/>
<path d="M219.985 43.6036C219.985 47.1124 217.142 49.9554 213.633 49.9554C210.124 49.9554 207.281 47.1124 207.281 43.6036C207.281 40.0947 210.124 37.2517 213.633 37.2517C217.142 37.2517 219.985 40.0947 219.985 43.6036Z" fill="#ed8f26" fill-opacity="0.329476" fill-rule="nonzero" opacity="1" stroke="none"/>
</g>
<path d="M434.746 10.8156C434.746 14.3248 431.903 17.1678 428.394 17.1678C424.885 17.1678 422.042 14.3248 422.042 10.8156C422.042 7.30828 424.885 4.46529 428.394 4.46529C431.903 4.46529 434.746 7.30828 434.746 10.8156Z" fill="#ed8f26" fill-opacity="0.329476" fill-rule="nonzero" opacity="1" stroke="none"/>
<path d="M806.73 19.9615C806.73 23.4703 803.887 26.3135 800.38 26.3135C796.87 26.3135 794.027 23.4703 794.027 19.9615C794.027 16.4526 796.87 13.6096 800.38 13.6096C803.887 13.6096 806.73 16.4526 806.73 19.9615Z" fill="#ed8f26" fill-opacity="0.329476" fill-rule="nonzero" opacity="1" stroke="none"/>
<g opacity="1">
<path d="M653.695 95.1848C655.39 91.4067 659.824 89.7189 663.603 91.4143C667.381 93.1089 669.068 97.5433 667.373 101.321C665.679 105.099 661.244 106.787 657.467 105.093C653.688 103.397 652 98.9628 653.695 95.1848ZM597.843 27.0773C599.28 23.8759 603.037 22.4455 606.239 23.8819C609.441 25.3184 610.871 29.0762 609.435 32.2776C607.999 35.4789 604.241 36.9091 601.039 35.4726C597.837 34.0362 596.407 30.2786 597.843 27.0773ZM627.978 116.231C648.437 125.409 671.705 126.085 692.662 118.108C713.619 110.131 730.55 94.1563 739.729 73.6973C748.908 53.2377 749.584 29.9704 741.606 9.0121C733.629-11.9447 717.654-28.8764 697.195-38.055C676.736-47.2335 653.469-47.9072 632.51-39.9317C611.553-31.9547 594.622-15.9796 585.443 4.47998C576.265 24.939 575.59 48.2076 583.566 69.1644C591.544 90.1227 607.519 107.052 627.978 116.231ZM648.743 69.9455C631.702 62.3005 624.084 42.2868 631.73 25.2455C639.375 8.20342 659.389 0.586687 676.429 8.23173C693.472 15.8776 701.09 35.8905 693.444 52.9326C685.797 69.9731 665.786 77.5906 648.743 69.9455Z" fill="#ed8f26" fill-opacity="0.329476" fill-rule="nonzero" opacity="1" stroke="none"/>
<path d="M666.078 39.0883C666.078 41.0173 664.515 42.5801 662.586 42.5801C660.657 42.5801 659.095 41.0173 659.095 39.0883C659.095 37.1594 660.657 35.5964 662.586 35.5964C664.515 35.5964 666.078 37.1594 666.078 39.0883Z" fill="#ed8f26" fill-opacity="0.329476" fill-rule="nonzero" opacity="1" stroke="none"/>
</g>
<path d="M407.186 75.981C407.186 77.91 405.622 79.4729 403.692 79.4729C401.765 79.4729 400.201 77.91 400.201 75.981C400.201 74.052 401.765 72.4892 403.692 72.4892C405.622 72.4892 407.186 74.052 407.186 75.981Z" fill="#ed8f26" fill-opacity="0.329476" fill-rule="nonzero" opacity="1" stroke="none"/>
<path d="M332.719 117.653C332.719 119.581 331.157 121.145 329.227 121.145C327.298 121.145 325.736 119.581 325.736 117.653C325.736 115.724 327.298 114.162 329.227 114.162C331.157 114.162 332.719 115.724 332.719 117.653Z" fill="#ed8f26" fill-opacity="0.329476" fill-rule="nonzero" opacity="1" stroke="none"/>
<g opacity="1">
<path d="M434.964 137.629C434.964 139.558 433.401 141.121 431.472 141.121C429.543 141.121 427.98 139.558 427.98 137.629C427.98 135.701 429.543 134.138 431.472 134.138C433.401 134.138 434.964 135.701 434.964 137.629Z" fill="#ed8f26" fill-opacity="0.329476" fill-rule="nonzero" opacity="1" stroke="none"/>
<path d="M382.948 110.522C382.948 114.662 379.593 118.017 375.451 118.017C371.311 118.017 367.956 114.662 367.956 110.522C367.956 106.381 371.311 103.026 375.451 103.026C379.593 103.026 382.948 106.381 382.948 110.522ZM402.242 180.423C402.242 182.35 400.678 183.914 398.751 183.914C396.821 183.914 395.257 182.35 395.257 180.423C395.257 178.493 396.821 176.929 398.751 176.929C400.678 176.929 402.242 178.493 402.242 180.423ZM455.824 184.41C455.824 186.338 454.26 187.902 452.33 187.902C450.403 187.902 448.839 186.338 448.839 184.41C448.839 182.481 450.403 180.919 452.33 180.919C454.26 180.919 455.824 182.481 455.824 184.41ZM477.923 157.93C477.923 159.86 476.361 161.421 474.432 161.421C472.502 161.421 470.94 159.86 470.94 157.93C470.94 156 472.502 154.438 474.432 154.438C476.361 154.438 477.923 156 477.923 157.93ZM448.681 92.1679C448.681 94.0969 447.119 95.6598 445.189 95.6598C443.262 95.6598 441.698 94.0969 441.698 92.1679C441.698 90.2389 443.262 88.6761 445.189 88.6761C447.119 88.6761 448.681 90.2389 448.681 92.1679ZM430.706 77.3472C414.717 77.3472 399.385 83.6985 388.078 95.0032C376.774 106.309 370.423 121.641 370.423 137.63C370.423 153.618 376.774 168.95 388.078 180.257C399.383 191.561 414.717 197.912 430.706 197.912C446.694 197.912 462.026 191.561 473.331 180.257C484.635 168.95 490.988 153.618 490.988 137.63C490.988 121.641 484.635 106.308 473.331 95.0032C462.026 83.6981 446.694 77.3472 430.706 77.3472ZM430.706 113.516C444.023 113.516 454.818 124.312 454.818 137.63C454.818 150.947 444.023 161.742 430.706 161.742C417.388 161.742 406.592 150.947 406.592 137.63C406.593 124.312 417.388 113.517 430.706 113.516Z" fill="#ed8f26" fill-opacity="0.329476" fill-rule="nonzero" opacity="1" stroke="none"/>
</g>
<g filter="url(#Filter)">
<path d="M56.8968 101.172C55.3382 105.346 53.4691 108.39 51.2896 110.306C49.1102 112.221 46.4618 113.179 43.3445 113.179L33.7549 113.179L33.7549 104.342L38.4705 104.342C40.8479 104.342 42.5916 103.939 43.7012 103.133C44.8107 102.327 45.9334 100.458 47.0693 97.5259L47.9411 95.1483L31.0601 51.9948L43.2652 51.9948L53.4096 80.8034L63.118 51.9948L75.3231 51.9948L56.8968 101.172Z" fill="#ed8f26" fill-rule="nonzero" opacity="1" stroke="#ae691c" stroke-linecap="butt" stroke-linejoin="miter" stroke-width="1.5"/>
<path d="M121.25 94.1974C118.556 95.3068 115.808 96.139 113.008 96.6938C110.208 97.2486 107.249 97.5259 104.132 97.5259C96.7082 97.5259 91.035 95.538 87.112 91.5621C83.1891 87.5862 81.2274 81.8602 81.2274 74.384C81.2274 67.1456 83.1163 61.426 86.8941 57.2257C90.6718 53.0253 95.8234 50.9249 102.349 50.9249C108.927 50.9249 114.032 52.8733 117.664 56.7699C121.297 60.6665 123.113 66.1549 123.113 73.2348L123.113 77.9503L93.0362 77.9503C93.0625 81.4375 94.093 84.0397 96.1271 85.7568C98.1613 87.4739 101.199 88.3326 105.241 88.3326C107.909 88.3326 110.538 87.9496 113.127 87.1833C115.716 86.4173 118.424 85.202 121.25 83.5377L121.25 94.1974ZM111.423 69.2324C111.37 66.1682 110.584 63.8498 109.065 62.2781C107.546 60.7062 105.307 59.9203 102.349 59.9203C99.6803 59.9203 97.5536 60.7325 95.9686 62.3572C94.3836 63.9819 93.4458 66.287 93.1552 69.2721L111.423 69.2324Z" fill="#ed8f26" fill-rule="nonzero" opacity="1" stroke="#ae691c" stroke-linecap="butt" stroke-linejoin="miter" stroke-width="1.5"/>
<path d="M153.784 39.3937L153.784 51.9948L168.961 51.9948L168.961 60.9109L153.784 60.9109L153.784 81.913C153.784 83.8943 154.266 85.3143 155.23 86.1729C156.194 87.0314 157.799 87.4608 160.045 87.4608L168.961 87.4608L168.961 96.3767L159.213 96.3767C152.555 96.3767 148.051 95.3135 145.7 93.1868C143.349 91.0601 142.173 87.1173 142.173 81.3582L142.173 60.9109L130.84 60.9109L130.84 51.9948L142.173 51.9948L142.173 39.3937L153.784 39.3937Z" fill="#ed8f26" fill-rule="nonzero" opacity="1" stroke="#ae691c" stroke-linecap="butt" stroke-linejoin="miter" stroke-width="1.5"/>
<path d="M224.161 103.906L224.161 111.831L175.301 111.831L175.301 103.906L224.161 103.906Z" fill="#ed8f26" fill-rule="nonzero" opacity="1" stroke="#ae691c" stroke-linecap="butt" stroke-linejoin="miter" stroke-width="1.5"/>
<path d="M251.899 75.5333C247.566 75.5333 244.543 76.0878 242.825 77.1974C241.107 78.307 240.249 80.2092 240.249 82.9037C240.249 84.9114 240.844 86.5097 242.032 87.6984C243.222 88.8874 244.832 89.4818 246.867 89.4818C249.931 89.4818 252.309 88.326 254 86.0145C255.691 83.7029 256.536 80.4734 256.536 76.3256L256.536 75.5333L251.899 75.5333ZM268.067 71.0553L268.067 96.3767L256.536 96.3767L256.536 91.4235C255.136 93.3784 253.339 94.8841 251.146 95.9409C248.955 96.9975 246.536 97.5259 243.894 97.5259C238.849 97.5259 234.919 96.1918 232.106 93.5236C229.293 90.8554 227.886 87.1306 227.886 82.349C227.886 77.171 229.563 73.347 232.918 70.877C236.274 68.4069 241.464 67.172 248.493 67.172L256.536 67.172L256.536 65.2301C256.536 63.3545 255.855 61.9346 254.496 60.9704C253.134 60.0062 251.132 59.524 248.493 59.524C245.718 59.524 243.03 59.8741 240.427 60.5741C237.825 61.2743 235.111 62.3904 232.284 63.9226L232.284 54.0158C234.847 52.9592 237.449 52.1799 240.091 51.6779C242.733 51.1761 245.533 50.9249 248.493 50.9249C255.704 50.9249 260.77 52.3911 263.689 55.3235C266.608 58.256 268.067 63.4999 268.067 71.0553Z" fill="#ed8f26" fill-rule="nonzero" opacity="1" stroke="#ae691c" stroke-linecap="butt" stroke-linejoin="miter" stroke-width="1.5"/>
<path d="M315.462 67.5683L315.462 96.3767L303.928 96.3767L303.928 69.3515C303.928 66.1285 303.473 63.8234 302.562 62.4366C301.652 61.0495 300.164 60.3561 298.103 60.3561C296.018 60.3561 294.372 61.2939 293.171 63.1697C291.969 65.0453 291.367 67.6474 291.367 70.9762L291.367 96.3767L279.837 96.3767L279.837 51.9948L291.367 51.9948L291.367 58.6523C292.186 56.1953 293.586 54.2933 295.567 52.9459C297.549 51.5987 299.941 50.9249 302.74 50.9249C306.94 50.9249 310.11 52.3185 312.251 55.1056C314.391 57.8928 315.462 62.0468 315.462 67.5683Z" fill="#ed8f26" fill-rule="nonzero" opacity="1" stroke="#ae691c" stroke-linecap="butt" stroke-linejoin="miter" stroke-width="1.5"/>
<path d="M346.289 60.3561C343.516 60.3561 341.337 61.5779 339.752 64.0216C338.167 66.4653 337.373 69.8666 337.373 74.2255C337.373 78.5845 338.167 81.9858 339.752 84.4292C341.337 86.8729 343.516 88.0948 346.289 88.0948C349.091 88.0948 351.283 86.8729 352.867 84.4292C354.452 81.9858 355.246 78.5845 355.246 74.2255C355.246 69.8666 354.452 66.4653 352.867 64.0216C351.283 61.5779 349.091 60.3561 346.289 60.3561ZM325.764 74.2255C325.764 67.0663 327.619 61.3931 331.332 57.2059C335.043 53.0185 340.029 50.9249 346.289 50.9249C352.577 50.9249 357.577 53.0185 361.29 57.2059C365 61.3931 366.855 67.0663 366.855 74.2255C366.855 81.3848 365 87.058 361.29 91.2452C357.577 95.4323 352.577 97.5259 346.289 97.5259C340.029 97.5259 335.043 95.4323 331.332 91.2452C327.619 87.058 325.764 81.3848 325.764 74.2255Z" fill="#ed8f26" fill-rule="nonzero" opacity="1" stroke="#ae691c" stroke-linecap="butt" stroke-linejoin="miter" stroke-width="1.5"/>
<path d="M398.082 39.3937L398.082 51.9948L413.258 51.9948L413.258 60.9109L398.082 60.9109L398.082 81.913C398.082 83.8943 398.565 85.3143 399.529 86.1729C400.492 87.0314 402.097 87.4608 404.342 87.4608L413.258 87.4608L413.258 96.3767L403.511 96.3767C396.854 96.3767 392.349 95.3135 389.998 93.1868C387.647 91.0601 386.472 87.1173 386.472 81.3582L386.472 60.9109L375.138 60.9109L375.138 51.9948L386.472 51.9948L386.472 39.3937L398.082 39.3937Z" fill="#ed8f26" fill-rule="nonzero" opacity="1" stroke="#ae691c" stroke-linecap="butt" stroke-linejoin="miter" stroke-width="1.5"/>
<path d="M462.039 67.5683L462.039 96.3767L450.509 96.3767L450.509 69.3515C450.509 66.1549 450.053 63.8697 449.14 62.4961C448.229 61.1223 446.744 60.4354 444.683 60.4354C442.569 60.4354 440.919 61.3667 439.731 63.229C438.54 65.0915 437.948 67.6738 437.948 70.9762L437.948 96.3767L426.414 96.3767L426.414 34.7178L437.948 34.7178L437.948 58.6523C438.766 56.1953 440.166 54.2933 442.147 52.9459C444.129 51.5987 446.518 50.9249 449.318 50.9249C453.52 50.9249 456.69 52.3185 458.829 55.1056C460.969 57.8928 462.039 62.0468 462.039 67.5683Z" fill="#ed8f26" fill-rule="nonzero" opacity="1" stroke="#ae691c" stroke-linecap="butt" stroke-linejoin="miter" stroke-width="1.5"/>
<path d="M512.128 94.1974C509.432 95.3068 506.686 96.139 503.886 96.6938C501.084 97.2486 498.126 97.5259 495.009 97.5259C487.585 97.5259 481.911 95.538 477.989 91.5621C474.066 87.5862 472.105 81.8602 472.105 74.384C472.105 67.1456 473.994 61.426 477.772 57.2257C481.548 53.0253 486.699 50.9249 493.226 50.9249C499.804 50.9249 504.91 52.8733 508.541 56.7699C512.173 60.6665 513.99 66.1549 513.99 73.2348L513.99 77.9503L483.913 77.9503C483.94 81.4375 484.97 84.0397 487.004 85.7568C489.039 87.4739 492.076 88.3326 496.118 88.3326C498.787 88.3326 501.415 87.9496 504.003 87.1833C506.594 86.4173 509.301 85.202 512.128 83.5377L512.128 94.1974ZM502.299 69.2324C502.247 66.1682 501.461 63.8498 499.943 62.2781C498.424 60.7062 496.185 59.9203 493.226 59.9203C490.556 59.9203 488.431 60.7325 486.846 62.3572C485.261 63.9819 484.323 66.287 484.032 69.2721L502.299 69.2324Z" fill="#ed8f26" fill-rule="nonzero" opacity="1" stroke="#ae691c" stroke-linecap="butt" stroke-linejoin="miter" stroke-width="1.5"/>
<path d="M562.929 64.2396C561.66 63.0773 560.174 62.2053 558.47 61.6241C556.768 61.043 554.897 60.7524 552.863 60.7524C550.406 60.7524 548.26 61.1816 546.425 62.0403C544.588 62.8989 543.168 64.1472 542.164 65.7849C541.531 66.7888 541.087 68.0041 540.837 69.4306C540.586 70.8571 540.46 73.0235 540.46 75.9293L540.46 96.3767L528.851 96.3767L528.851 51.9948L540.46 51.9948L540.46 58.8899C541.596 56.3538 543.339 54.3923 545.69 53.0054C548.041 51.6186 550.789 50.9249 553.934 50.9249C555.519 50.9249 557.07 51.1165 558.589 51.4996C560.109 51.8826 561.556 52.4441 562.929 53.1838L562.929 64.2396Z" fill="#ed8f26" fill-rule="nonzero" opacity="1" stroke="#ae691c" stroke-linecap="butt" stroke-linejoin="miter" stroke-width="1.5"/>
<path d="M615.037 103.906L615.037 111.831L566.177 111.831L566.177 103.906L615.037 103.906Z" fill="#ed8f26" fill-rule="nonzero" opacity="1" stroke="#ae691c" stroke-linecap="butt" stroke-linejoin="miter" stroke-width="1.5"/>
<path d="M615.037 51.9948L624.706 51.9948L629.977 85.9946L634.772 63.6054L644.163 63.6054L648.879 85.9946L654.229 51.9948L663.898 51.9948L655.854 96.3767L644.837 96.3767L639.447 73.3141L634.098 96.3767L623.083 96.3767L615.037 51.9948Z" fill="#ed8f26" fill-rule="nonzero" opacity="1" stroke="#ae691c" stroke-linecap="butt" stroke-linejoin="miter" stroke-width="1.5"/>
<path d="M672.656 51.9948L695.638 51.9948L695.638 87.4608L710.064 87.4608L710.064 96.3767L669.565 96.3767L669.565 87.4608L684.029 87.4608L684.029 60.9109L672.656 60.9109L672.656 51.9948ZM684.029 30.3985L695.638 30.3985L695.638 43.9508L684.029 43.9508L684.029 30.3985Z" fill="#ed8f26" fill-rule="nonzero" opacity="1" stroke="#ae691c" stroke-linecap="butt" stroke-linejoin="miter" stroke-width="1.5"/>
<path d="M720.127 51.9948L755.594 51.9948L755.594 61.0693L732.253 87.6984L755.594 87.6984L755.594 96.3767L719.176 96.3767L719.176 87.3024L742.557 60.6733L720.127 60.6733L720.127 51.9948Z" fill="#ed8f26" fill-rule="nonzero" opacity="1" stroke="#ae691c" stroke-linecap="butt" stroke-linejoin="miter" stroke-width="1.5"/>
<path d="M768.987 51.9948L804.454 51.9948L804.454 61.0693L781.113 87.6984L804.454 87.6984L804.454 96.3767L768.036 96.3767L768.036 87.3024L791.415 60.6733L768.987 60.6733L768.987 51.9948Z" fill="#ed8f26" fill-rule="nonzero" opacity="1" stroke="#ae691c" stroke-linecap="butt" stroke-linejoin="miter" stroke-width="1.5"/>
</g>
</g>
</svg>
