<?xml version="1.0" encoding="UTF-8" standalone="no"?>
<!DOCTYPE svg PUBLIC "-//W3C//DTD SVG 1.1//EN" "http://www.w3.org/Graphics/SVG/1.1/DTD/svg11.dtd">
<!-- Created with Vectornator (http://vectornator.io/) -->
<svg height="100%" stroke-miterlimit="10" style="fill-rule:nonzero;clip-rule:evenodd;stroke-linecap:round;stroke-linejoin:round;" version="1.1" viewBox="0 0 830.829 143.577" width="100%" xml:space="preserve" xmlns="http://www.w3.org/2000/svg" xmlns:xlink="http://www.w3.org/1999/xlink">
<defs/>
<clipPath id="ArtboardFrame">
<rect height="143.577" width="830.829" x="0" y="0"/>
</clipPath>
<g clip-path="url(#ArtboardFrame)" id="layer1">
<path d="M3.12244e-14 3.02606e-15L830.829 3.02606e-15L830.829 143.577L3.12244e-14 143.577L3.12244e-14 3.02606e-15Z" fill="#ffffff" fill-rule="nonzero" opacity="1" stroke="none"/>
<path d="M715.014 122.738C715.014 124.667 713.45 126.23 711.522 126.23C709.593 126.23 708.029 124.667 708.029 122.738C708.029 120.809 709.593 119.246 711.522 119.246C713.45 119.246 715.014 120.809 715.014 122.738Z" fill="#e6f0f3" fill-rule="nonzero" opacity="1" stroke="none"/>
<path d="M555.506 133.083C555.506 135.011 553.942 136.574 552.014 136.574C550.085 136.574 548.521 135.011 548.521 133.083C548.521 131.153 550.085 129.59 552.014 129.59C553.942 129.59 555.506 131.153 555.506 133.083Z" fill="#e6f0f3" fill-rule="nonzero" opacity="1" stroke="none"/>
<path d="M29.0975 14.3512C27.3561 15.1825 25.2715 14.4458 24.4405 12.705C23.6095 10.9641 24.3475 8.88005 26.0889 8.04878C27.8285 7.21836 29.913 7.95505 30.744 9.69587C31.575 11.4367 30.837 13.5208 29.0975 14.3512Z" fill="#e6f0f3" fill-rule="nonzero" opacity="1" stroke="none"/>
<path d="M110.765-20.7447C110.765-18.8157 109.203-17.2528 107.274-17.2528C105.345-17.2528 103.782-18.8157 103.782-20.7447C103.782-22.6737 105.345-24.2365 107.274-24.2365C109.203-24.2365 110.765-22.6737 110.765-20.7447Z" fill="#e6f0f3" fill-rule="nonzero" opacity="1" stroke="none"/>
<path d="M602.794 138.463C602.794 140.392 601.233 141.956 599.303 141.956C597.375 141.956 595.811 140.392 595.811 138.463C595.811 136.535 597.375 134.971 599.303 134.971C601.233 134.971 602.794 136.535 602.794 138.463Z" fill="#e6f0f3" fill-rule="nonzero" opacity="1" stroke="none"/>
<path d="M495.139 106.876C495.139 108.805 493.577 110.367 491.647 110.367C489.718 110.367 488.156 108.805 488.156 106.876C488.156 104.947 489.718 103.384 491.647 103.384C493.577 103.384 495.139 104.947 495.139 106.876Z" fill="#e6f0f3" fill-rule="nonzero" opacity="1" stroke="none"/>
<path d="M778.469 96.8412C778.469 98.7702 776.907 100.333 774.977 100.333C773.05 100.333 771.486 98.7702 771.486 96.8412C771.486 94.9122 773.05 93.3494 774.977 93.3494C776.907 93.3494 778.469 94.9122 778.469 96.8412Z" fill="#e6f0f3" fill-rule="nonzero" opacity="1" stroke="none"/>
<path d="M480.291 36.4427C480.291 38.3719 478.727 39.9348 476.8 39.9348C474.87 39.9348 473.308 38.3719 473.308 36.4427C473.308 34.5139 474.87 32.9511 476.8 32.9511C478.727 32.9511 480.291 34.5139 480.291 36.4427Z" fill="#e6f0f3" fill-rule="nonzero" opacity="1" stroke="none"/>
<path d="M766.6 2.4403C766.6 6.58122 763.245 9.93626 759.105 9.93626C754.965 9.93626 751.61 6.58122 751.61 2.4403C751.61-1.70042 754.965-5.05547 759.105-5.05547C763.245-5.05547 766.6-1.70042 766.6 2.4403Z" fill="#e6f0f3" fill-rule="nonzero" opacity="1" stroke="none"/>
<path d="M687.507 60.2248C687.507 56.0839 684.152 52.7288 680.012 52.7288C675.87 52.7288 672.515 56.0839 672.515 60.2248C672.515 64.3655 675.87 67.7205 680.012 67.7205C684.152 67.7205 687.507 64.3655 687.507 60.2248Z" fill="#e6f0f3" fill-rule="nonzero" opacity="1" stroke="none"/>
<path d="M393.149 46.6976C393.149 50.8384 389.794 54.1936 385.654 54.1936C381.512 54.1936 378.157 50.8384 378.157 46.6976C378.157 42.5569 381.512 39.2017 385.654 39.2017C389.794 39.2017 393.149 42.5569 393.149 46.6976Z" fill="#e6f0f3" fill-rule="nonzero" opacity="1" stroke="none"/>
<path d="M547.374 11.3216C547.374 15.4623 544.019 18.8176 539.879 18.8176C535.737 18.8176 532.382 15.4623 532.382 11.3216C532.382 7.18088 535.737 3.82583 539.879 3.82583C544.019 3.82583 547.374 7.18088 547.374 11.3216Z" fill="#e6f0f3" fill-rule="nonzero" opacity="1" stroke="none"/>
<path d="M64.5099 37.8869C60.7739 39.6704 56.3008 38.088 54.5169 34.3512C52.733 30.6143 54.3154 26.1412 58.0515 24.3577C61.7893 22.5733 66.2624 24.1557 68.0463 27.8927C69.8302 31.6295 68.2478 36.1026 64.5099 37.8869Z" fill="#e6f0f3" fill-rule="nonzero" opacity="1" stroke="none"/>
<path d="M783.242 138.118C783.242 142.26 779.887 145.615 775.747 145.615C771.605 145.615 768.25 142.26 768.25 138.118C768.25 133.978 771.605 130.623 775.747 130.623C779.887 130.623 783.242 133.978 783.242 138.118Z" fill="#e6f0f3" fill-rule="nonzero" opacity="1" stroke="none"/>
<path d="M681.637 143.059C681.637 146.568 678.794 149.411 675.285 149.411C671.776 149.411 668.933 146.568 668.933 143.059C668.933 139.549 671.776 136.706 675.285 136.706C678.794 136.706 681.637 139.549 681.637 143.059Z" fill="#e6f0f3" fill-rule="nonzero" opacity="1" stroke="none"/>
<path d="M57.773 145.259C57.773 148.766 54.93 151.609 51.4212 151.609C47.9125 151.609 45.0693 148.766 45.0693 145.259C45.0693 141.749 47.9125 138.906 51.4212 138.906C54.93 138.906 57.773 141.749 57.773 145.259Z" fill="#e6f0f3" fill-rule="nonzero" opacity="1" stroke="none"/>
<g opacity="1">
<path d="M256.604 143.258C256.819 145.174 255.438 146.902 253.522 147.116C251.605 147.331 249.878 145.95 249.664 144.035C249.45 142.117 250.828 140.389 252.745 140.175C254.661 139.96 256.39 141.34 256.604 143.258ZM266.149-15.9933C266.363-14.0762 264.985-12.3494 263.067-12.1348C261.15-11.9202 259.424-13.2997 259.209-15.2167C258.995-17.1338 260.373-18.8608 262.291-19.0754C264.208-19.29 265.934-17.9103 266.149-15.9933ZM179.68 78.5453C180.14 82.6605 177.18 86.3678 173.064 86.8283C168.949 87.2888 165.242 84.3276 164.781 80.2124C164.321 76.0973 167.282 72.39 171.397 71.9295C175.512 71.469 179.22 74.4302 179.68 78.5453ZM238.803-30.3001C239.264-26.1848 236.302-22.4774 232.186-22.0168C228.071-21.5565 224.364-24.5176 223.903-28.6328C223.443-32.7477 226.404-36.4552 230.518-36.9156C234.635-37.3762 238.343-34.4149 238.803-30.3001ZM186.401 125.544C186.791 129.029 184.282 132.171 180.795 132.561C177.308 132.951 174.166 130.442 173.776 126.957C173.386 123.469 175.895 120.328 179.382 119.937C182.87 119.547 186.011 122.056 186.401 125.544ZM215.97 146.368C216.361 149.856 213.851 152.997 210.365 153.388C206.878 153.778 203.736 151.269 203.346 147.781C202.956 144.296 205.465 141.154 208.952 140.764C212.439 140.374 215.58 142.883 215.97 146.368ZM318.956 83.8064C319.346 87.2935 316.837 90.4352 313.349 90.8255C309.864 91.2155 306.722 88.7061 306.332 85.219C305.942 81.7321 308.451 78.5904 311.937 78.2004C315.424 77.8101 318.566 80.3195 318.956 83.8064ZM157.101 95.2083C157.491 98.6956 154.982 101.837 151.495 102.227C148.008 102.618 144.867 100.108 144.476 96.621C144.086 93.1341 146.595 89.9924 150.082 89.6022C153.57 89.212 156.711 91.7214 157.101 95.2083ZM123.668 38.1833C124.128 42.2984 121.167 46.0059 117.052 46.4664C112.937 46.9268 109.23 43.9655 108.769 39.8504C108.309 35.7354 111.27 32.0281 115.385 31.5676C119.5 31.1071 123.207 34.0683 123.668 38.1833ZM200.722-71.7745C170.122-68.3505 142.136-52.9106 122.919-28.8525C103.703-4.7932 94.8309 25.9136 98.2549 56.5131C101.679 87.1136 117.118 115.1 141.177 134.317C165.235 153.534 195.943 162.406 226.543 158.982C257.143 155.558 285.131 140.118 304.348 116.058C323.563 91.9996 332.435 61.2926 329.011 30.6921C325.587 0.0926222 310.147-27.8949 286.09-47.1108C262.03-66.3275 231.322-75.1986 200.722-71.7745ZM208.468-2.54847C233.957-5.40063 256.932 12.9505 259.784 38.4385C262.636 63.9276 244.286 86.9017 218.797 89.7538C193.308 92.6059 170.333 74.256 167.481 48.7669C164.63 23.2788 182.98 0.304757 208.468-2.54847Z" fill="#e6f0f3" fill-rule="nonzero" opacity="1" stroke="none"/>
<path d="M219.985 43.6036C219.985 47.1124 217.142 49.9554 213.633 49.9554C210.124 49.9554 207.281 47.1124 207.281 43.6036C207.281 40.0947 210.124 37.2517 213.633 37.2517C217.142 37.2517 219.985 40.0947 219.985 43.6036Z" fill="#e6f0f3" fill-rule="nonzero" opacity="1" stroke="none"/>
</g>
<path d="M434.746 10.8156C434.746 14.3248 431.903 17.1678 428.394 17.1678C424.885 17.1678 422.042 14.3248 422.042 10.8156C422.042 7.30828 424.885 4.46529 428.394 4.46529C431.903 4.46529 434.746 7.30828 434.746 10.8156Z" fill="#e6f0f3" fill-rule="nonzero" opacity="1" stroke="none"/>
<path d="M806.73 19.9615C806.73 23.4703 803.887 26.3135 800.38 26.3135C796.87 26.3135 794.027 23.4703 794.027 19.9615C794.027 16.4526 796.87 13.6096 800.38 13.6096C803.887 13.6096 806.73 16.4526 806.73 19.9615Z" fill="#e6f0f3" fill-rule="nonzero" opacity="1" stroke="none"/>
<g opacity="1">
<path d="M653.695 95.1848C655.39 91.4067 659.824 89.7189 663.603 91.4143C667.381 93.1089 669.068 97.5433 667.373 101.321C665.679 105.099 661.244 106.787 657.467 105.093C653.688 103.397 652 98.9628 653.695 95.1848ZM597.843 27.0773C599.28 23.8759 603.037 22.4455 606.239 23.8819C609.441 25.3184 610.871 29.0762 609.435 32.2776C607.999 35.4789 604.241 36.9091 601.039 35.4726C597.837 34.0362 596.407 30.2786 597.843 27.0773ZM627.978 116.231C648.437 125.409 671.705 126.085 692.662 118.108C713.619 110.131 730.55 94.1563 739.729 73.6973C748.908 53.2377 749.584 29.9704 741.606 9.0121C733.629-11.9447 717.654-28.8764 697.195-38.055C676.736-47.2335 653.469-47.9072 632.51-39.9317C611.553-31.9547 594.622-15.9796 585.443 4.47998C576.265 24.939 575.59 48.2076 583.566 69.1644C591.544 90.1227 607.519 107.052 627.978 116.231ZM648.743 69.9455C631.702 62.3005 624.084 42.2868 631.73 25.2455C639.375 8.20342 659.389 0.586687 676.429 8.23173C693.472 15.8776 701.09 35.8905 693.444 52.9326C685.797 69.9731 665.786 77.5906 648.743 69.9455Z" fill="#e6f0f3" fill-rule="nonzero" opacity="1" stroke="none"/>
<path d="M666.078 39.0883C666.078 41.0173 664.515 42.5801 662.586 42.5801C660.657 42.5801 659.095 41.0173 659.095 39.0883C659.095 37.1594 660.657 35.5964 662.586 35.5964C664.515 35.5964 666.078 37.1594 666.078 39.0883Z" fill="#e6f0f3" fill-rule="nonzero" opacity="1" stroke="none"/>
</g>
<path d="M407.186 75.981C407.186 77.91 405.622 79.4729 403.692 79.4729C401.765 79.4729 400.201 77.91 400.201 75.981C400.201 74.052 401.765 72.4892 403.692 72.4892C405.622 72.4892 407.186 74.052 407.186 75.981Z" fill="#e6f0f3" fill-rule="nonzero" opacity="1" stroke="none"/>
<path d="M332.719 117.653C332.719 119.581 331.157 121.145 329.227 121.145C327.298 121.145 325.736 119.581 325.736 117.653C325.736 115.724 327.298 114.162 329.227 114.162C331.157 114.162 332.719 115.724 332.719 117.653Z" fill="#e6f0f3" fill-rule="nonzero" opacity="1" stroke="none"/>
<g opacity="1">
<path d="M434.964 137.629C434.964 139.558 433.401 141.121 431.472 141.121C429.543 141.121 427.98 139.558 427.98 137.629C427.98 135.701 429.543 134.138 431.472 134.138C433.401 134.138 434.964 135.701 434.964 137.629Z" fill="#e6f0f3" fill-rule="nonzero" opacity="1" stroke="none"/>
<path d="M382.948 110.522C382.948 114.662 379.593 118.017 375.451 118.017C371.311 118.017 367.956 114.662 367.956 110.522C367.956 106.381 371.311 103.026 375.451 103.026C379.593 103.026 382.948 106.381 382.948 110.522ZM402.242 180.423C402.242 182.35 400.678 183.914 398.751 183.914C396.821 183.914 395.257 182.35 395.257 180.423C395.257 178.493 396.821 176.929 398.751 176.929C400.678 176.929 402.242 178.493 402.242 180.423ZM455.824 184.41C455.824 186.338 454.26 187.902 452.33 187.902C450.403 187.902 448.839 186.338 448.839 184.41C448.839 182.481 450.403 180.919 452.33 180.919C454.26 180.919 455.824 182.481 455.824 184.41ZM477.923 157.93C477.923 159.86 476.361 161.421 474.432 161.421C472.502 161.421 470.94 159.86 470.94 157.93C470.94 156 472.502 154.438 474.432 154.438C476.361 154.438 477.923 156 477.923 157.93ZM448.681 92.1679C448.681 94.0969 447.119 95.6598 445.189 95.6598C443.262 95.6598 441.698 94.0969 441.698 92.1679C441.698 90.2389 443.262 88.6761 445.189 88.6761C447.119 88.6761 448.681 90.2389 448.681 92.1679ZM430.706 77.3472C414.717 77.3472 399.385 83.6985 388.078 95.0032C376.774 106.309 370.423 121.641 370.423 137.63C370.423 153.618 376.774 168.95 388.078 180.257C399.383 191.561 414.717 197.912 430.706 197.912C446.694 197.912 462.026 191.561 473.331 180.257C484.635 168.95 490.988 153.618 490.988 137.63C490.988 121.641 484.635 106.308 473.331 95.0032C462.026 83.6981 446.694 77.3472 430.706 77.3472ZM430.706 113.516C444.023 113.516 454.818 124.312 454.818 137.63C454.818 150.947 444.023 161.742 430.706 161.742C417.388 161.742 406.592 150.947 406.592 137.63C406.593 124.312 417.388 113.517 430.706 113.516Z" fill="#e6f0f3" fill-rule="nonzero" opacity="1" stroke="none"/>
</g>
<g opacity="1">
<path d="M170.965 27.9803L170.965 52.049L172.969 52.049C175.874 52.049 177.945 51.1349 179.18 49.3066C180.416 47.4782 181.034 44.3684 181.034 39.9771C181.034 35.6192 180.416 32.5303 179.18 30.7103C177.945 28.8903 175.874 27.9803 172.969 27.9803L170.965 27.9803ZM163.577 21.3182L171.491 21.3182C177.602 21.3182 182.002 22.775 184.69 25.6887C187.378 28.6023 188.723 33.3651 188.723 39.9771C188.723 46.6058 187.378 51.3853 184.69 54.3157C182.002 57.246 177.602 58.7111 171.491 58.7111L163.577 58.7111L163.577 21.3182Z" fill="#459db9" fill-rule="nonzero" opacity="1" stroke="none"/>
<path d="M206.455 35.9448C204.702 35.9448 203.324 36.717 202.322 38.2615C201.32 39.806 200.819 41.9557 200.819 44.7107C200.819 47.4657 201.32 49.6154 202.322 51.1599C203.324 52.7044 204.702 53.4766 206.455 53.4766C208.225 53.4766 209.61 52.7044 210.612 51.1599C211.614 49.6154 212.115 47.4657 212.115 44.7107C212.115 41.9557 211.614 39.806 210.612 38.2615C209.61 36.717 208.225 35.9448 206.455 35.9448ZM193.481 44.7107C193.481 40.1858 194.654 36.6001 197 33.9537C199.346 31.3072 202.498 29.984 206.455 29.984C210.429 29.984 213.589 31.3072 215.934 33.9537C218.28 36.6001 219.453 40.1858 219.453 44.7107C219.453 49.2356 218.28 52.8213 215.934 55.4677C213.589 58.1142 210.429 59.4375 206.455 59.4375C202.498 59.4375 199.346 58.1142 197 55.4677C194.654 52.8213 193.481 49.2356 193.481 44.7107Z" fill="#459db9" fill-rule="nonzero" opacity="1" stroke="none"/>
<path d="M248.481 57.2835C247.245 58.0015 245.918 58.54 244.499 58.899C243.08 59.258 241.552 59.4375 239.916 59.4375C235.591 59.4375 232.21 58.1351 229.772 55.5304C227.334 52.9256 226.115 49.3191 226.115 44.7107C226.115 40.0856 227.343 36.4666 229.797 33.8535C232.252 31.2404 235.641 29.9339 239.966 29.9339C241.468 29.9339 242.917 30.1092 244.311 30.4598C245.705 30.8105 247.095 31.3531 248.481 32.0878L248.481 38.8C247.412 37.8816 246.239 37.1762 244.962 36.6836C243.685 36.1911 242.362 35.9448 240.992 35.9448C238.605 35.9448 236.768 36.7045 235.482 38.2239C234.197 39.7434 233.554 41.9056 233.554 44.7107C233.554 47.5158 234.197 49.6697 235.482 51.1724C236.768 52.6752 238.605 53.4265 240.992 53.4265C242.412 53.4265 243.739 53.1886 244.975 52.7127C246.21 52.2369 247.379 51.5147 248.481 50.5463L248.481 57.2835Z" fill="#459db9" fill-rule="nonzero" opacity="1" stroke="none"/>
<path d="M256.796 48.9183L256.796 30.6602L264.134 30.6602L264.134 47.7913C264.134 49.8116 264.418 51.2559 264.986 52.1242C265.554 52.9924 266.497 53.4265 267.816 53.4265C269.135 53.4265 270.166 52.8421 270.909 51.6734C271.652 50.5046 272.024 48.8683 272.024 46.7644L272.024 30.6602L279.362 30.6602L279.362 58.7111L272.024 58.7111L272.024 54.5536C271.506 56.1064 270.625 57.3086 269.382 58.1601C268.138 59.0117 266.639 59.4375 264.886 59.4375C262.214 59.4375 260.198 58.5525 258.837 56.7826C257.477 55.0128 256.796 52.3913 256.796 48.9183Z" fill="#459db9" fill-rule="nonzero" opacity="1" stroke="none"/>
<path d="M300.951 33.4653C301.502 32.2798 302.204 31.4032 303.055 30.8355C303.907 30.2678 304.95 29.984 306.186 29.984C308.607 29.984 310.281 30.8188 311.207 32.4885C312.134 34.1582 312.598 37.6312 312.598 42.9074L312.598 58.7111L306.587 58.7111L306.587 40.7034C306.587 38.6163 306.428 37.2221 306.111 36.5208C305.793 35.8196 305.217 35.4689 304.383 35.4689C303.548 35.4689 302.963 35.8279 302.629 36.5459C302.295 37.2638 302.128 38.6497 302.128 40.7034L302.128 58.7111L296.193 58.7111L296.193 40.7034C296.193 38.6497 296.026 37.2638 295.692 36.5459C295.358 35.8279 294.773 35.4689 293.939 35.4689C293.104 35.4689 292.528 35.8196 292.21 36.5208C291.893 37.2221 291.735 38.6163 291.735 40.7034L291.735 58.7111L285.724 58.7111L285.724 30.6602L291.058 30.6602L291.058 33.5655C291.476 32.4635 292.144 31.591 293.062 30.9482C293.98 30.3054 295.007 29.984 296.143 29.984C297.278 29.984 298.313 30.3221 299.248 30.9983C300.183 31.6745 300.751 32.4969 300.951 33.4653Z" fill="#459db9" fill-rule="nonzero" opacity="1" stroke="none"/>
<path d="M342.151 57.3336C340.448 58.0349 338.712 58.5609 336.942 58.9115C335.172 59.2621 333.302 59.4375 331.332 59.4375C326.64 59.4375 323.054 58.181 320.574 55.6681C318.095 53.1552 316.855 49.5361 316.855 44.8109C316.855 40.2359 318.049 36.621 320.437 33.9662C322.824 31.3114 326.08 29.984 330.204 29.984C334.362 29.984 337.589 31.2154 339.885 33.6782C342.18 36.141 343.328 39.6098 343.328 44.0846L343.328 47.065L324.319 47.065C324.335 49.269 324.987 50.9136 326.272 51.9989C327.558 53.0842 329.478 53.6269 332.033 53.6269C333.719 53.6269 335.381 53.3848 337.017 52.9006C338.653 52.4164 340.365 51.6483 342.151 50.5964L342.151 57.3336ZM335.94 41.555C335.907 39.6181 335.41 38.153 334.45 37.1595C333.49 36.166 332.075 35.6693 330.204 35.6693C328.518 35.6693 327.174 36.1827 326.172 37.2096C325.17 38.2364 324.578 39.6933 324.394 41.58L335.94 41.555Z" fill="#459db9" fill-rule="nonzero" opacity="1" stroke="none"/>
<path d="M372.256 40.5031L372.256 58.7111L364.968 58.7111L364.968 41.6301C364.968 39.5931 364.68 38.1363 364.104 37.2597C363.528 36.3831 362.588 35.9448 361.286 35.9448C359.967 35.9448 358.927 36.5375 358.168 37.723C357.408 38.9085 357.028 40.5532 357.028 42.657L357.028 58.7111L349.74 58.7111L349.74 30.6602L357.028 30.6602L357.028 34.8678C357.546 33.315 358.431 32.1128 359.683 31.2613C360.935 30.4097 362.446 29.984 364.216 29.984C366.871 29.984 368.875 30.8647 370.227 32.6263C371.58 34.3878 372.256 37.0134 372.256 40.5031Z" fill="#459db9" fill-rule="nonzero" opacity="1" stroke="none"/>
<path d="M393.595 22.6957L393.595 30.6602L403.187 30.6602L403.187 36.2954L393.595 36.2954L393.595 49.5695C393.595 50.8218 393.899 51.7193 394.509 52.2619C395.118 52.8046 396.133 53.0759 397.552 53.0759L403.187 53.0759L403.187 58.7111L397.026 58.7111C392.818 58.7111 389.971 58.0391 388.485 56.695C386.999 55.3509 386.256 52.8588 386.256 49.2189L386.256 36.2954L379.093 36.2954L379.093 30.6602L386.256 30.6602L386.256 22.6957L393.595 22.6957Z" fill="#459db9" fill-rule="nonzero" opacity="1" stroke="none"/>
<path d="M424.726 45.5372C421.988 45.5372 420.076 45.8878 418.991 46.5891C417.905 47.2904 417.363 48.4926 417.363 50.1957C417.363 51.4646 417.738 52.4748 418.49 53.2262C419.241 53.9775 420.26 54.3532 421.545 54.3532C423.482 54.3532 424.985 53.6227 426.054 52.1617C427.122 50.7008 427.656 48.6595 427.656 46.0381L427.656 45.5372L424.726 45.5372ZM434.945 42.7071L434.945 58.7111L427.656 58.7111L427.656 55.5804C426.772 56.816 425.636 57.7678 424.25 58.4356C422.864 59.1035 421.337 59.4375 419.667 59.4375C416.478 59.4375 413.994 58.5943 412.216 56.9079C410.438 55.2215 409.549 52.8672 409.549 49.845C409.549 46.5724 410.609 44.1555 412.729 42.5944C414.85 41.0332 418.131 40.2526 422.572 40.2526L427.656 40.2526L427.656 39.0254C427.656 37.8399 427.227 36.9424 426.367 36.333C425.507 35.7236 424.242 35.4188 422.572 35.4188C420.819 35.4188 419.12 35.6401 417.475 36.0825C415.831 36.525 414.115 37.2305 412.329 38.1989L412.329 31.9375C413.948 31.2696 415.593 30.7771 417.263 30.4598C418.932 30.1426 420.702 29.984 422.572 29.984C427.131 29.984 430.332 30.9106 432.177 32.764C434.022 34.6174 434.945 37.9317 434.945 42.7071Z" fill="#459db9" fill-rule="nonzero" opacity="1" stroke="none"/>
<path d="M455.357 22.6957L455.357 30.6602L464.949 30.6602L464.949 36.2954L455.357 36.2954L455.357 49.5695C455.357 50.8218 455.662 51.7193 456.271 52.2619C456.88 52.8046 457.895 53.0759 459.314 53.0759L464.949 53.0759L464.949 58.7111L458.788 58.7111C454.58 58.7111 451.734 58.0391 450.248 56.695C448.761 55.3509 448.018 52.8588 448.018 49.2189L448.018 36.2954L440.855 36.2954L440.855 30.6602L448.018 30.6602L448.018 22.6957L455.357 22.6957Z" fill="#459db9" fill-rule="nonzero" opacity="1" stroke="none"/>
<path d="M474.492 30.6602L489.018 30.6602L489.018 53.0759L498.134 53.0759L498.134 58.7111L472.538 58.7111L472.538 53.0759L481.68 53.0759L481.68 36.2954L474.492 36.2954L474.492 30.6602ZM481.68 17.0104L489.018 17.0104L489.018 25.576L481.68 25.576L481.68 17.0104Z" fill="#459db9" fill-rule="nonzero" opacity="1" stroke="none"/>
<path d="M515.266 35.9448C513.512 35.9448 512.135 36.717 511.133 38.2615C510.131 39.806 509.63 41.9557 509.63 44.7107C509.63 47.4657 510.131 49.6154 511.133 51.1599C512.135 52.7044 513.512 53.4766 515.266 53.4766C517.035 53.4766 518.421 52.7044 519.423 51.1599C520.425 49.6154 520.926 47.4657 520.926 44.7107C520.926 41.9557 520.425 39.806 519.423 38.2615C518.421 36.717 517.035 35.9448 515.266 35.9448ZM502.292 44.7107C502.292 40.1858 503.465 36.6001 505.811 33.9537C508.157 31.3072 511.308 29.984 515.266 29.984C519.239 29.984 522.399 31.3072 524.745 33.9537C527.091 36.6001 528.264 40.1858 528.264 44.7107C528.264 49.2356 527.091 52.8213 524.745 55.4677C522.399 58.1142 519.239 59.4375 515.266 59.4375C511.308 59.4375 508.157 58.1142 505.811 55.4677C503.465 52.8213 502.292 49.2356 502.292 44.7107Z" fill="#459db9" fill-rule="nonzero" opacity="1" stroke="none"/>
<path d="M557.542 40.5031L557.542 58.7111L550.254 58.7111L550.254 41.6301C550.254 39.5931 549.966 38.1363 549.39 37.2597C548.814 36.3831 547.875 35.9448 546.572 35.9448C545.253 35.9448 544.214 36.5375 543.454 37.723C542.695 38.9085 542.315 40.5532 542.315 42.657L542.315 58.7111L535.026 58.7111L535.026 30.6602L542.315 30.6602L542.315 34.8678C542.832 33.315 543.717 32.1128 544.97 31.2613C546.222 30.4097 547.733 29.984 549.503 29.984C552.158 29.984 554.161 30.8647 555.514 32.6263C556.866 34.3878 557.542 37.0134 557.542 40.5031Z" fill="#459db9" fill-rule="nonzero" opacity="1" stroke="none"/>
<path d="M607.909 35.9448C606.156 35.9448 604.778 36.717 603.776 38.2615C602.775 39.806 602.274 41.9557 602.274 44.7107C602.274 47.4657 602.775 49.6154 603.776 51.1599C604.778 52.7044 606.156 53.4766 607.909 53.4766C609.679 53.4766 611.065 52.7044 612.066 51.1599C613.068 49.6154 613.569 47.4657 613.569 44.7107C613.569 41.9557 613.068 39.806 612.066 38.2615C611.065 36.717 609.679 35.9448 607.909 35.9448ZM594.935 44.7107C594.935 40.1858 596.108 36.6001 598.454 33.9537C600.8 31.3072 603.952 29.984 607.909 29.984C611.883 29.984 615.043 31.3072 617.389 33.9537C619.734 36.6001 620.907 40.1858 620.907 44.7107C620.907 49.2356 619.734 52.8213 617.389 55.4677C615.043 58.1142 611.883 59.4375 607.909 59.4375C603.952 59.4375 600.8 58.1142 598.454 55.4677C596.108 52.8213 594.935 49.2356 594.935 44.7107Z" fill="#459db9" fill-rule="nonzero" opacity="1" stroke="none"/>
<path d="M641.871 28.2057L641.871 30.6602L650.486 30.6602L650.486 36.2954L641.871 36.2954L641.871 58.7111L634.532 58.7111L634.532 36.2954L627.72 36.2954L627.72 30.6602L634.532 30.6602L634.532 28.7066C634.532 25.3338 635.233 22.9963 636.636 21.6939C638.039 20.3915 640.643 19.7404 644.45 19.7404L650.486 19.7404L650.486 25.3756L644.751 25.3756C643.649 25.3756 642.902 25.576 642.509 25.9767C642.117 26.3774 641.904 27.1204 641.871 28.2057Z" fill="#459db9" fill-rule="nonzero" opacity="1" stroke="none"/>
<path d="M177.953 121.742C176.968 124.38 175.787 126.304 174.409 127.515C173.032 128.725 171.358 129.33 169.387 129.33L163.326 129.33L163.326 123.745L166.307 123.745C167.81 123.745 168.912 123.491 169.613 122.981C170.314 122.472 171.024 121.291 171.742 119.437L172.293 117.935L161.623 90.6602L169.337 90.6602L175.749 108.868L181.885 90.6602L189.599 90.6602L177.953 121.742Z" fill="#459db9" fill-rule="nonzero" opacity="1" stroke="none"/>
<path d="M218.627 117.334C216.924 118.035 215.187 118.561 213.417 118.911C211.647 119.262 209.777 119.437 207.807 119.437C203.115 119.437 199.53 118.181 197.05 115.668C194.571 113.155 193.331 109.536 193.331 104.811C193.331 100.236 194.525 96.621 196.912 93.9662C199.3 91.3114 202.556 89.984 206.68 89.984C210.838 89.984 214.064 91.2154 216.36 93.6782C218.656 96.141 219.804 99.6098 219.804 104.085L219.804 107.065L200.794 107.065C200.811 109.269 201.462 110.914 202.748 111.999C204.034 113.084 205.954 113.627 208.508 113.627C210.195 113.627 211.856 113.385 213.493 112.901C215.129 112.416 216.84 111.648 218.627 110.596L218.627 117.334ZM212.416 101.555C212.382 99.6181 211.885 98.153 210.925 97.1595C209.965 96.166 208.55 95.6693 206.68 95.6693C204.994 95.6693 203.65 96.1827 202.648 97.2096C201.646 98.2364 201.053 99.6933 200.87 101.58L212.416 101.555Z" fill="#459db9" fill-rule="nonzero" opacity="1" stroke="none"/>
<path d="M239.189 82.6957L239.189 90.6602L248.782 90.6602L248.782 96.2954L239.189 96.2954L239.189 109.57C239.189 110.822 239.494 111.719 240.103 112.262C240.713 112.805 241.727 113.076 243.146 113.076L248.782 113.076L248.782 118.711L242.62 118.711C238.413 118.711 235.566 118.039 234.08 116.695C232.594 115.351 231.851 112.859 231.851 109.219L231.851 96.2954L224.688 96.2954L224.688 90.6602L231.851 90.6602L231.851 82.6957L239.189 82.6957Z" fill="#459db9" fill-rule="nonzero" opacity="1" stroke="none"/>
<path d="M283.67 123.47L283.67 128.479L252.789 128.479L252.789 123.47L283.67 123.47Z" fill="#459db9" fill-rule="nonzero" opacity="1" stroke="none"/>
<path d="M301.202 105.537C298.464 105.537 296.552 105.888 295.466 106.589C294.381 107.29 293.838 108.493 293.838 110.196C293.838 111.465 294.214 112.475 294.965 113.226C295.717 113.978 296.735 114.353 298.021 114.353C299.958 114.353 301.461 113.623 302.529 112.162C303.598 110.701 304.132 108.66 304.132 106.038L304.132 105.537L301.202 105.537ZM311.42 102.707L311.42 118.711L304.132 118.711L304.132 115.58C303.247 116.816 302.112 117.768 300.726 118.436C299.34 119.104 297.812 119.437 296.143 119.437C292.953 119.437 290.47 118.594 288.692 116.908C286.913 115.221 286.024 112.867 286.024 109.845C286.024 106.572 287.085 104.156 289.205 102.594C291.326 101.033 294.606 100.253 299.048 100.253L304.132 100.253L304.132 99.0254C304.132 97.8399 303.702 96.9424 302.842 96.333C301.982 95.7236 300.718 95.4188 299.048 95.4188C297.295 95.4188 295.596 95.6401 293.951 96.0825C292.306 96.525 290.591 97.2305 288.804 98.1989L288.804 91.9375C290.424 91.2696 292.069 90.7771 293.738 90.4598C295.408 90.1426 297.178 89.984 299.048 89.984C303.606 89.984 306.808 90.9106 308.653 92.764C310.498 94.6174 311.42 97.9317 311.42 102.707Z" fill="#459db9" fill-rule="nonzero" opacity="1" stroke="none"/>
<path d="M341.375 100.503L341.375 118.711L334.087 118.711L334.087 101.63C334.087 99.5931 333.799 98.1363 333.222 97.2597C332.646 96.3831 331.707 95.9448 330.405 95.9448C329.086 95.9448 328.046 96.5375 327.287 97.723C326.527 98.9085 326.147 100.553 326.147 102.657L326.147 118.711L318.859 118.711L318.859 90.6602L326.147 90.6602L326.147 94.8678C326.665 93.315 327.55 92.1128 328.802 91.2613C330.054 90.4097 331.565 89.984 333.335 89.984C335.99 89.984 337.994 90.8647 339.346 92.6263C340.699 94.3878 341.375 97.0134 341.375 100.503Z" fill="#459db9" fill-rule="nonzero" opacity="1" stroke="none"/>
<path d="M360.86 95.9448C359.107 95.9448 357.729 96.717 356.728 98.2615C355.726 99.806 355.225 101.956 355.225 104.711C355.225 107.466 355.726 109.615 356.728 111.16C357.729 112.704 359.107 113.477 360.86 113.477C362.63 113.477 364.016 112.704 365.018 111.16C366.02 109.615 366.52 107.466 366.52 104.711C366.52 101.956 366.02 99.806 365.018 98.2615C364.016 96.717 362.63 95.9448 360.86 95.9448ZM347.887 104.711C347.887 100.186 349.06 96.6001 351.405 93.9537C353.751 91.3072 356.903 89.984 360.86 89.984C364.834 89.984 367.994 91.3072 370.34 93.9537C372.686 96.6001 373.859 100.186 373.859 104.711C373.859 109.236 372.686 112.821 370.34 115.468C367.994 118.114 364.834 119.437 360.86 119.437C356.903 119.437 353.751 118.114 351.405 115.468C349.06 112.821 347.887 109.236 347.887 104.711Z" fill="#459db9" fill-rule="nonzero" opacity="1" stroke="none"/>
<path d="M393.595 82.6957L393.595 90.6602L403.187 90.6602L403.187 96.2954L393.595 96.2954L393.595 109.57C393.595 110.822 393.899 111.719 394.509 112.262C395.118 112.805 396.133 113.076 397.552 113.076L403.187 113.076L403.187 118.711L397.026 118.711C392.818 118.711 389.971 118.039 388.485 116.695C386.999 115.351 386.256 112.859 386.256 109.219L386.256 96.2954L379.093 96.2954L379.093 90.6602L386.256 90.6602L386.256 82.6957L393.595 82.6957Z" fill="#459db9" fill-rule="nonzero" opacity="1" stroke="none"/>
<path d="M434.018 100.503L434.018 118.711L426.73 118.711L426.73 101.63C426.73 99.6098 426.442 98.1655 425.866 97.2972C425.29 96.429 424.35 95.9949 423.048 95.9949C421.712 95.9949 420.669 96.5834 419.917 97.7606C419.166 98.9377 418.79 100.57 418.79 102.657L418.79 118.711L411.502 118.711L411.502 79.7404L418.79 79.7404L418.79 94.8678C419.308 93.315 420.193 92.1128 421.445 91.2613C422.697 90.4097 424.209 89.984 425.978 89.984C428.633 89.984 430.637 90.8647 431.989 92.6263C433.342 94.3878 434.018 97.0134 434.018 100.503Z" fill="#459db9" fill-rule="nonzero" opacity="1" stroke="none"/>
<path d="M465.676 117.334C463.972 118.035 462.236 118.561 460.466 118.911C458.696 119.262 456.826 119.437 454.856 119.437C450.164 119.437 446.578 118.181 444.099 115.668C441.619 113.155 440.38 109.536 440.38 104.811C440.38 100.236 441.573 96.621 443.961 93.9662C446.349 91.3114 449.605 89.984 453.729 89.984C457.886 89.984 461.113 91.2154 463.409 93.6782C465.705 96.141 466.853 99.6098 466.853 104.085L466.853 107.065L447.843 107.065C447.86 109.269 448.511 110.914 449.797 111.999C451.082 113.084 453.003 113.627 455.557 113.627C457.244 113.627 458.905 113.385 460.541 112.901C462.178 112.416 463.889 111.648 465.676 110.596L465.676 117.334ZM459.464 101.555C459.431 99.6181 458.934 98.153 457.974 97.1595C457.014 96.166 455.599 95.6693 453.729 95.6693C452.042 95.6693 450.698 96.1827 449.697 97.2096C448.695 98.2364 448.102 99.6933 447.918 101.58L459.464 101.555Z" fill="#459db9" fill-rule="nonzero" opacity="1" stroke="none"/>
<path d="M497.784 98.3992C496.982 97.6646 496.043 97.1136 494.966 96.7462C493.889 96.3789 492.708 96.1952 491.422 96.1952C489.869 96.1952 488.513 96.4666 487.352 97.0092C486.192 97.5519 485.294 98.3408 484.66 99.376C484.259 100.011 483.98 100.779 483.821 101.68C483.662 102.582 483.583 103.951 483.583 105.788L483.583 118.711L476.245 118.711L476.245 90.6602L483.583 90.6602L483.583 95.0181C484.301 93.4152 485.403 92.1754 486.889 91.2988C488.375 90.4223 490.112 89.984 492.099 89.984C493.1 89.984 494.081 90.105 495.041 90.3471C496.001 90.5892 496.916 90.944 497.784 91.4116L497.784 98.3992Z" fill="#459db9" fill-rule="nonzero" opacity="1" stroke="none"/>
<path d="M530.719 123.47L530.719 128.479L499.838 128.479L499.838 123.47L530.719 123.47Z" fill="#459db9" fill-rule="nonzero" opacity="1" stroke="none"/>
<path d="M530.719 90.6602L536.83 90.6602L540.161 112.149L543.191 97.9985L549.127 97.9985L552.107 112.149L555.489 90.6602L561.6 90.6602L556.516 118.711L549.553 118.711L546.147 104.135L542.766 118.711L535.803 118.711L530.719 90.6602Z" fill="#459db9" fill-rule="nonzero" opacity="1" stroke="none"/>
<path d="M567.135 90.6602L581.661 90.6602L581.661 113.076L590.778 113.076L590.778 118.711L565.181 118.711L565.181 113.076L574.323 113.076L574.323 96.2954L567.135 96.2954L567.135 90.6602ZM574.323 77.0104L581.661 77.0104L581.661 85.576L574.323 85.576L574.323 77.0104Z" fill="#459db9" fill-rule="nonzero" opacity="1" stroke="none"/>
<path d="M597.139 90.6602L619.555 90.6602L619.555 96.3956L604.803 113.226L619.555 113.226L619.555 118.711L596.538 118.711L596.538 112.976L611.315 96.1452L597.139 96.1452L597.139 90.6602Z" fill="#459db9" fill-rule="nonzero" opacity="1" stroke="none"/>
<path d="M628.02 90.6602L650.436 90.6602L650.436 96.3956L635.684 113.226L650.436 113.226L650.436 118.711L627.419 118.711L627.419 112.976L642.196 96.1452L628.02 96.1452L628.02 90.6602Z" fill="#459db9" fill-rule="nonzero" opacity="1" stroke="none"/>
</g>
</g>
</svg>
